<?xml version="1.0" standalone="no"?> <!DOCTYPE svg PUBLIC "-//W3C//DTD SVG 1.0//EN" "http://www.w3.org/TR/2001/REC-SVG-20010904/DTD/svg10.dtd" > <svg xmlns="http://www.w3.org/2000/svg" width="100%" height="100%">
<defs >
<font id="belligerent" horiz-adv-x="435" ><font-face
    font-family="Belligerent Madness"
    units-per-em="1000"
    panose-1="0 0 0 0 0 0 0 0 0 0"
    ascent="1050"
    descent="-170"
    alphabetic="0" />
<missing-glyph horiz-adv-x="500" />
<glyph unicode=" " glyph-name="space" horiz-adv-x="300" />
<glyph unicode="!" glyph-name="exclam" horiz-adv-x="199" d="M85 653Q96 663 105 667T117 664L118 665V658Q126 666 133 667T142 660Q142 622 142 566T142 452T146 346T157 271Q162 254 164 234T181 201Q170 194 160 189T139 177L138 176L156 158L155 157Q152
154 147 150T136 142T125 137T115 139Q111 143 109 146Q102 141 96 139T84 142Q81 147 78 154Q67 141 55 132T34 126Q33 124 31 122V128Q26 136 24 149T22 179Q22 195 23 211T27 241Q25 279 23 316T20 391Q18 438 18 485T19 581Q18 590 18 596Q18 602 19 612V616Q22
625 31 637T52 660T72 674T84 671L85 672V653ZM38 -62Q30 -46 27 -33T19 -2Q19 0 19 0T18 3Q19 14 27 17T48 31Q58 47 74 62T107 75Q113 66 120 46Q133 52 143 51Q143 49 144 48Q144 48 145 46Q148 38 150 33T155 23T160 13T163 -1L145 -6Q145 -11 145 -14T144
-20Q143 -26 135 -38T116 -61T95 -77T78 -77Q73 -65 70 -51Q61 -59 52 -63T38 -62ZM30 265Q30 267 30 265T29 260Q29 261 29 262T30 265Z" />
<glyph unicode="&quot;" glyph-name="quotedbl" horiz-adv-x="253" d="M78 672V659L80 660Q80 654 80 648Q80 643 81 637Q86 640 92 641Q93 640 96 640Q98 640 98 640T101 639Q106 620 106 589T107 526T111 467T124 431Q108 414 93 399T62 366Q53 374 49 387T42
416Q36 414 32 417L31 416V419Q29 425 29 431Q29 437 28 444L24 440Q16 483 15 527T12 615L78 672ZM163 605Q165 610 169 614Q172 618 179 626T195 641T213 651T229 650Q232 648 233 635T234 603T235 560Q235 538 235 518Q235 499 236 484T241 465Q230 459 220
453T198 440L217 422L216 421Q213 418 208 414T197 406T186 401T176 403Q173 406 171 423Q164 421 161 426Q148 446 149 474T156 528Q154 547 154 565Q154 584 159 603L163 605Z" />
<glyph unicode="#" glyph-name="numbersign" horiz-adv-x="533" d="M161 276Q161 296 161 316T159 357L158 355Q125 347 100 339T62 328Q58 327 54 329Q28 321 15 322Q11 326 13 330T17 340Q19 344 20 347L75 377Q74 380 73 382T72 388Q83 387 100 392Q101 393
105 395L123 401Q131 405 139 409T156 418Q156 429 156 444T154 476T152 509T148 538L141 532Q141 540 141 547T143 562Q146 570 153 580T169 599T188 613T208 617Q209 615 210 613T212 608Q223 619 234 625T247 620Q252 583 251 537T245 443Q265 447 285 449T327
454Q325 477 325 502Q325 528 332 550Q337 576 349 599T385 643Q387 645 392 649T402 656T413 659Q418 659 419 653Q417 603 413 555T404 458H405Q407 458 420 459T449 461T479 463T496 462Q498 454 495 447T485 432T472 420T460 409Q448 399 434 396T403 390Q404
382 404 375T407 360Q408 349 408 338Q408 328 409 317V311Q434 311 459 308Q472 311 491 312T520 306Q522 297 518 288T506 271T489 257T474 246Q461 238 447 237T416 237Q417 231 417 226T419 214L406 203Q404 174 403 145T401 86V71L400 70Q398 64 391 53T375
33T355 17T338 13L335 10V21Q334 67 330 112T325 204V230Q302 226 281 222T237 214Q236 179 236 144T235 74L169 17V36Q167 36 165 36T161 35H158L155 38Q148 60 149 85T153 135V137Q154 144 154 150T156 163Q156 174 156 181Q156 189 157 194Q153 192 151 192Q144
189 132 183T106 172T80 164T59 165L63 169Q54 169 51 170Q45 176 49 185T61 202T78 218T91 229Q123 251 161 266V276V276ZM241 370Q240 345 240 321Q240 297 239 272Q261 280 283 286T328 298Q329 317 330 335T334 372Q333 375 333 382Q310 379 287 376T241 370Z"
/>
<glyph unicode="$" glyph-name="dollar" horiz-adv-x="490" d="M367 605Q370 604 378 602Q385 600 391 599T401 594T406 586T402 572Q399 567 391 557T373 537T354 522T338 523Q337 526 337 532L339 533V534Q322 536 306 541T272 550V544Q276 528 278 509Q279
492 279 476T281 442Q298 440 314 438T348 431Q376 429 401 423T446 400Q473 377 476 353T468 306T437 261T398 224Q383 210 362 195T316 166Q317 135 316 104V101Q315 100 314 100Q312 95 309 89T300 77Q302 65 302 56T302 41Q301 35 293 23T274 0T253 -16T236
-16Q229 17 226 50T220 116Q220 117 220 118T219 120Q180 106 150 106Q135 106 121 110T92 116L102 128Q84 131 70 143T38 162L37 161V164Q38 173 44 184T60 206T81 222T102 226Q116 220 128 212T154 197Q163 192 178 193T211 198Q209 239 209 279Q209 319 209
361Q178 358 149 355T97 353Q88 353 74 354T46 361T23 374T13 398Q13 401 13 403T15 409Q10 430 21 452T51 496T89 534T123 560Q137 570 152 577T185 591V592V597Q183 602 183 607T181 617Q181 623 184 630V637Q185 638 186 638T189 641Q194 651 203 661T222 679T239
689T249 686L250 687V677Q251 672 251 662Q258 637 262 614Q319 627 381 621L367 605ZM288 363Q294 330 299 298T310 232Q317 235 322 237T333 242Q338 244 347 247T366 255T385 265T400 274Q400 274 401 275Q402 282 402 289T399 303Q393 317 381 327T353 343T323
355T295 363H288ZM173 451Q179 450 185 450Q191 450 198 450Q192 494 189 537Q162 526 138 512T97 480Q92 475 90 470T84 460Q90 447 100 444T124 442T150 447T173 451ZM344 538L347 541Q346 540 345 540Q345 540 344 539V538Z" />
<glyph unicode="%" glyph-name="percent" horiz-adv-x="636" d="M404 -28Q367 -20 345 -6T312 26T301 65Q301 86 309 109L296 104Q319 139 339 172T386 229T446 264T531 265Q561 259 581 239T616 194Q625 177 623 155Q625 135 613 111T578 61Q573 56 569 52T560
44Q542 26 522 12T480 -13T440 -27T404 -28ZM150 392Q128 384 106 382Q87 376 75 382Q48 386 33 404T20 457L17 454Q17 455 15 464T13 481Q11 503 25 522T55 560Q76 586 107 609T171 643T235 644T288 594Q294 583 294 568Q294 554 292 543Q286 519 272 496T238
452T197 416T150 392ZM131 53Q112 18 88 -14T32 -60Q26 -60 23 -57Q20 -38 29 -13T52 38T81 85T107 120Q136 158 165 195T227 269Q278 344 328 418T443 560Q452 570 464 583T491 608T520 629T552 640Q557 639 558 636T558 630T554 623T551 617Q528 583 504 551T454
486V485Q443 468 431 453T404 422Q331 332 260 243T132 53H131ZM548 77Q560 100 555 122Q545 135 525 141T480 150T433 153T393 149Q389 140 389 127T394 102T403 79T414 63Q423 55 440 54T476 54T514 61T545 72Q546 74 546 74T548 77ZM127 450Q134 449 141 449Q148
449 156 449Q173 454 189 465T215 486Q219 504 213 518T196 541T169 555T138 559Q136 558 125 556L122 551Q119 549 115 547T107 543Q99 524 99 502Q99 480 111 464Q118 455 127 450ZM418 489Q420 492 422 495T426 501Q407 480 390 457T357 411Q372 431 387 450T418
489ZM402 201Q401 201 397 199Q390 191 384 178L390 184Q388 184 390 185Q400 196 402 201Z" />
<glyph unicode="&amp;" glyph-name="ampersand" horiz-adv-x="655" d="M192 685Q194 689 202 699T220 720T239 737T254 741Q292 782 337 800Q356 808 376 811T417 819Q415 817 414 815T411 811Q431 816 454 817T488 806Q506 785 512 764T518 722T510 680T494 634Q470
568 434 517T353 417Q372 382 399 343T455 275Q473 292 498 316T550 361T601 393T642 395Q642 392 643 390Q634 354 612 325T570 267Q561 264 552 262T534 257Q526 250 519 244T503 231Q518 218 535 206T566 183T592 166T607 161L565 98Q560 96 550 96L532 76Q522
78 512 84T493 99T476 115T458 130L440 142Q439 141 438 141T436 139L437 137Q406 109 375 84T309 36T238 -2T160 -29Q149 -32 133 -32Q118 -32 103 -29T75 -19T54 -1Q49 6 45 11T38 21Q18 30 15 52T14 98Q14 103 16 111Q18 123 20 133T23 150Q28 176 44 207T83
268T132 326T180 373Q190 381 201 391T226 409L230 413Q225 424 222 433V434Q220 436 220 439Q209 462 198 487T183 538Q182 548 182 558Q182 568 182 579V581Q183 594 182 606T184 633Q186 637 187 640T191 649Q192 659 192 666T192 679Q193 680 193 680Q194 680
195 681L190 678Q192 682 192 685ZM174 97Q191 88 213 89T260 100Q283 114 303 135T344 175Q346 168 347 162T351 149Q362 156 371 162T390 176Q388 178 386 180T381 184Q346 213 315 254T261 342L251 352Q249 354 248 354L247 353Q227 323 207 292T167 232Q164
228 158 214T147 183T139 151T141 131Q149 123 156 113T174 97ZM313 572Q318 555 320 539T326 505Q332 513 340 523T359 550Q376 574 396 607T419 674Q418 679 418 684T415 694Q413 699 410 704T405 716Q382 724 365 728T329 730Q313 727 298 721Q296 717 296 717Q293
709 291 702T287 686Q285 682 285 677T283 668Q288 660 290 645T292 611Q304 596 313 572ZM374 485Q366 474 358 464T340 444V443Q349 453 357 463T374 485ZM295 719Q294 718 292 718Q290 714 290 712Q292 716 295 719ZM513 240Q514 241 513 240T509 237Q510 238
511 238T513 240ZM162 278Q163 280 163 281T165 284L162 278ZM282 671Q282 670 281 670L282 669V671V671Z" />
<glyph unicode="&apos;" glyph-name="quotesingle" horiz-adv-x="172" d="M89 702Q87 692 87 688Q96 692 106 691Q114 699 123 703T142 706Q147 703 149 681T151 628Q151 598 150 567T149 518L137 507L134 495V493Q133 492 132 492V491Q130 487 125 479T111 463Q110
448 109 433T107 402V401V393Q104 391 100 387Q94 379 86 370T70 353T54 343T41 344V345Q40 366 40 387Q40 409 40 431Q29 483 22 540T24 652L89 702Z" />
<glyph unicode="(" glyph-name="parenleft" horiz-adv-x="236" d="M157 628Q159 631 159 634T162 641L167 636Q169 637 169 638T172 640L164 649Q175 660 185 669T210 686Q220 688 222 686T222 674Q217 663 211 654T197 637Q194 626 189 618T175 602Q160 571 146
534T119 457T100 377T90 299Q96 253 111 211Q117 195 131 172T159 126T185 81T197 46Q192 26 176 10T141 -14Q124 -16 110 -6T83 23Q82 24 81 24V25Q72 40 58 55T39 88Q19 147 15 210T17 336Q19 361 22 385T34 432Q43 468 58 502T96 568Q98 571 106 579T125 596Q132
605 143 615Q146 618 149 621T157 628Z" />
<glyph unicode=")" glyph-name="parenright" horiz-adv-x="231" d="M78 654Q80 648 85 642T95 631Q107 637 117 635T135 624T150 601T161 570Q175 547 185 522T204 470Q216 428 218 372T211 259T179 153T122 72L106 56L104 54L100 50L99 49Q99 49 98 47Q96 45
96 45Q91 39 77 27T52 8T36 4T48 30Q50 32 50 32Q52 36 53 37Q70 61 80 79T97 116T109 157T122 210Q126 227 132 246T139 286Q137 303 134 320T126 355Q125 360 124 363T122 372Q114 401 105 428T86 481Q84 485 82 491Q78 495 77 498V501Q67 525 55 543Q51 549
44 556T29 570T17 586T12 602Q13 611 19 622T35 643T56 659T77 664Q79 662 80 662T84 660L78 654Z" />
<glyph unicode="*" glyph-name="asterisk" horiz-adv-x="341" d="M151 485Q151 489 151 492T152 499V502Q152 503 152 503T153 505Q155 510 164 521T184 543T204 559T217 557L218 558V555Q221 535 220 516T217 476Q218 460 218 444Q218 429 218 414Q231 423 244
431T270 451Q276 456 282 461T296 471Q298 472 301 474T308 477T315 478T319 472Q318 470 318 468Q318 466 317 464Q328 468 328 463Q328 458 324 450T313 433T302 420Q288 406 272 395T238 372Q236 370 235 370Q237 366 240 363Q246 356 252 349T264 335Q275 324
286 312T307 288Q307 287 308 287L307 286Q307 277 299 265T280 242T258 226T242 226L200 271Q192 279 185 286T171 302Q167 296 164 290T157 278Q151 269 148 259T137 242Q134 239 136 246Q124 231 113 217T91 188Q89 187 87 187Q86 187 84 186Q77 186 75 189Q74
190 74 194Q66 190 60 189T55 199Q70 234 89 267T131 333Q124 335 118 337T105 342Q82 339 57 339T16 343L13 346Q10 359 19 370T36 391Q54 409 70 417Q87 432 95 437Q106 441 118 439T141 431Q139 449 145 466Q145 468 147 470V482L151 485Z" />
<glyph unicode="+" glyph-name="plus" horiz-adv-x="438" d="M174 154Q174 167 174 179Q174 191 175 204Q173 233 174 261T175 319V356Q169 355 164 355T153 353Q118 346 85 339T16 331Q9 338 15 348T31 369Q34 376 41 383T55 397T70 409T81 417Q97 425 116 425T154
424L175 427Q176 444 176 461T179 496Q176 509 176 521T179 546Q184 557 194 571T217 595Q226 604 233 608Q247 621 263 626Q268 627 271 627T277 622Q277 615 275 611T270 601Q266 583 263 566T257 530Q257 521 257 512Q257 504 258 497Q258 491 258 486T259 475L265
436Q310 441 355 442Q360 443 369 443Q382 443 394 443T419 444Q420 444 421 444T424 443Q424 442 424 442T425 440Q427 430 422 420T407 402T388 386T370 376Q363 374 356 372T341 369Q325 367 310 367T279 367Q280 362 280 356T283 345Q287 323 291 305T296 271T292
239T269 206Q264 202 260 198T251 191Q250 189 250 183Q250 180 251 179Q249 178 247 176Q243 168 235 157T217 137T199 124T184 126Q182 132 182 136L174 128V154V154ZM278 240Q272 237 267 234T256 227Q254 219 254 214Q260 220 266 226T278 240Z" />
<glyph unicode="," glyph-name="comma" horiz-adv-x="272" d="M51 130Q69 157 105 173Q134 190 164 192T215 174H218L219 175V173Q224 169 226 165T230 155Q238 146 235 136Q248 101 252 69T248 7T220 -52T162 -110Q153 -116 142 -125T119 -142T94 -157T69 -166Q60
-166 58 -165T57 -156Q58 -145 65 -136T78 -117Q86 -106 91 -98T94 -91Q93 -94 92 -98T89 -106L153 -62Q166 -39 166 -13Q166 12 159 38Q151 33 144 30T129 23Q124 20 120 18T110 13Q109 13 110 14T115 16T120 18T120 19Q103 10 85 7T51 6T25 22T14 55Q12 69 16
84T26 114L51 130Z" />
<glyph unicode="-" glyph-name="hyphen" horiz-adv-x="446" d="M329 364Q302 364 272 363T211 361T151 359T96 356Q53 351 22 341Q15 340 14 343T13 352T18 362T24 370Q33 382 45 396T73 416H74Q81 423 88 428T104 437Q134 448 170 455T244 466T319 469T387 462Q394
460 394 457T391 448Q390 446 389 444T387 439Q384 437 381 436T375 432Q380 431 384 431Q388 431 392 430H404Q404 430 406 429Q407 429 409 427Q414 426 418 425T428 423H429Q430 422 433 422Q435 412 429 401T413 381T392 365T371 357Q360 358 350 360T329 364Z"
/>
<glyph unicode="." glyph-name="period" horiz-adv-x="281" d="M65 -26Q42 -14 32 6T22 48T33 93T62 131Q74 147 91 160T127 180T165 186T202 173Q239 147 249 119T252 65T222 17T172 -18T116 -35T65 -26Z" />
<glyph unicode="/" glyph-name="slash" horiz-adv-x="532" d="M101 38Q101 41 103 45Q99 41 95 38T86 30Q81 22 78 14Q77 13 77 11L76 10Q73 6 63 -6T41 -29T21 -42T13 -31Q25 6 40 33T72 84Q75 92 80 99T91 114Q94 119 97 125T104 136Q107 144 110 147Q128 185
151 217T198 284Q206 295 217 312T242 350Q259 376 274 403T307 456Q327 489 347 522T392 586Q394 588 398 592T408 602Q422 625 446 645Q448 647 452 650T461 656T470 660T478 660Q482 663 486 666T495 672Q500 675 508 679T519 674Q521 660 515 650T498 630Q503
626 496 617T481 597Q479 593 478 589T474 581Q460 556 446 532T415 485Q400 445 382 407Q364 371 342 338T295 272T247 207T201 140Q199 138 199 137L216 142Q206 129 197 117T176 94Q173 88 170 82T163 71Q153 57 139 44T108 28H104Q101 30 101 38ZM119 72Q122
77 125 80T132 87Q143 106 154 124T178 161Q183 168 191 178Q180 166 169 155T147 133Q139 115 129 101Q127 97 126 94T122 86Q121 82 121 79T119 72ZM432 629Q429 627 429 626Q429 625 427 620Q437 630 440 634T432 629ZM488 655Q487 654 486 654Q487 654 488
655Z" />
<glyph unicode="0" glyph-name="zero" horiz-adv-x="584" d="M52 224Q52 226 52 228T51 232Q49 240 48 245Q34 272 25 301T13 360Q10 395 32 437T88 519T160 590T228 633Q257 645 286 648T347 649Q355 648 362 648T376 645Q386 643 392 641Q411 633 430 627T466
610Q481 599 496 582T524 545T545 505T557 465Q560 444 564 421T570 373T570 326T558 282Q550 265 544 249T529 217Q527 192 519 172Q512 158 505 142T486 114Q467 92 437 68T371 25T299 -5T230 -10Q215 -7 194 -1T151 13T111 31T85 53Q68 79 65 111T58 173L52
224ZM396 184Q392 173 390 163T383 141Q414 147 443 160Q450 162 454 166Q457 174 458 187T459 216Q455 244 450 269T442 308Q436 341 435 367T433 413T428 450T413 480T379 507T320 534L297 510Q279 526 251 533T197 535Q177 527 160 516Q158 514 157 513T154
509Q141 493 135 477T124 440Q120 425 118 390T117 312Q122 300 126 289T136 267Q160 229 188 201T251 156Q265 154 279 152T306 148T327 145T337 145Q354 150 368 161T396 184ZM453 129Q428 107 384 77Q386 77 387 78Q395 82 399 84T409 88T420 93T438 104Q452
114 457 132Q455 130 453 129Z" />
<glyph unicode="1" glyph-name="one" horiz-adv-x="355" d="M334 611Q324 585 318 557T303 503H311Q316 485 315 467T311 430T304 393T298 357Q296 347 296 342Q295 292 295 242Q295 193 282 145Q284 103 288 63L290 65Q290 63 290 62T289 59V58L288 57Q286 50
278 39T259 17T239 2T223 2Q222 4 222 10L216 4Q201 -11 192 -16Q188 -18 186 -18Q179 -18 180 -7Q180 -5 180 -3T181 1Q179 0 174 0L168 -6V30V32Q168 123 172 218T200 404Q208 463 224 518Q185 483 141 455Q136 452 127 445T108 432T87 422T70 421L65 418Q65
420 67 424V425Q61 420 55 417T42 413Q34 413 32 416Q31 418 31 423Q21 419 17 420Q11 422 13 429T22 444T36 460T46 470Q60 482 84 503T135 548T191 591T242 621Q270 645 294 661T335 681Q336 680 340 680Q345 671 340 658T326 633Q336 636 339 627L336 618L337
619Q336 618 336 617Q336 617 335 616V612L334 611Z" />
<glyph unicode="2" glyph-name="two" horiz-adv-x="611" d="M490 553Q479 564 464 571T432 584Q403 582 371 576T306 560Q289 549 274 539T247 521Q243 518 240 516T233 510L204 458Q187 450 169 441T132 434Q128 438 130 444Q135 462 154 483T199 525Q195 523
192 522T186 520Q178 515 172 510T158 499V502L152 494L129 459Q123 457 117 455T106 455Q99 455 97 458Q96 491 118 520T172 574T240 616T301 643Q330 654 359 656T418 657Q434 663 452 668T487 675T519 673T544 654Q545 652 546 651T548 647Q571 643 585 634T598
605Q596 581 584 557T556 511Q542 480 525 452T499 409Q473 368 441 322T373 230T298 144T216 73Q221 75 226 76T235 78Q268 85 311 93T398 105T484 102T554 72Q556 59 547 47T526 25Q521 8 503 -7T472 -28Q464 -31 450 -29T421 -23T390 -15T365 -10Q345 -7 316
-7T255 -11T192 -21T134 -37L126 -53Q107 -61 88 -71T56 -80Q51 -75 52 -70T58 -58Q53 -60 48 -61T37 -64Q27 -64 28 -55Q27 -55 23 -57Q16 -57 13 -55Q10 -39 18 -19T39 21T68 58T95 87L106 76Q120 89 132 100T153 119Q176 139 203 161T261 209Q281 231 301 253T342
298Q370 330 402 363T464 434Q492 488 492 543Q492 545 492 547T491 551Q490 552 490 553ZM237 124Q268 150 301 189T367 270Q348 252 329 235T289 200Q288 198 285 195Q260 168 236 143T186 91Q199 99 212 106T237 124Z" />
<glyph unicode="3" glyph-name="three" horiz-adv-x="571" d="M195 297Q194 297 194 296Q194 296 193 296Q176 285 159 277T122 267Q122 267 120 269Q118 268 114 268Q107 267 106 270T105 278T110 288T116 296Q149 341 198 367T302 406Q327 420 352 433T402 460Q408
480 411 499T409 538Q406 549 400 556T386 571Q363 580 334 582T273 581T214 571T164 555L161 548Q138 533 128 529L119 520Q113 526 111 529H110Q104 536 110 546T125 565L126 566Q134 577 143 587T163 604Q193 624 229 637Q258 654 292 663T359 675Q390 683 415
686T460 685T496 662T528 613Q539 587 535 563T517 517T480 474T431 435Q427 431 424 428T416 421Q433 421 447 420T476 416Q501 418 521 414T543 393Q543 382 542 377Q553 362 557 338Q559 321 558 303T549 267Q531 230 494 192T413 118T323 54T243 5Q202 -18
163 -27T79 -47Q76 -47 66 -50T45 -56T24 -58T12 -49Q15 -47 17 -44T22 -39Q17 -34 20 -25T31 -6T45 12T56 23Q58 25 60 27T64 31L79 16Q81 18 82 18T85 21Q85 24 86 26Q86 24 87 24Q117 48 151 56T223 73Q245 90 267 106T312 140Q315 143 325 151T348 170T377
196T406 224Q412 250 412 272Q412 294 400 326Q398 331 393 334T384 342H383Q383 343 382 343Q353 340 325 337T268 329Q263 327 259 327T249 325Q248 324 247 324Q234 316 221 310T195 297Z" />
<glyph unicode="4" glyph-name="four" horiz-adv-x="557" d="M372 658Q382 669 393 676T416 681Q421 661 422 643Q429 648 435 648T443 643Q441 628 436 617T423 594Q421 552 414 511T404 429Q402 407 400 386T395 343Q400 343 405 343T415 342Q442 343 468 341T520
330Q543 323 544 308T535 278T507 250T477 235Q454 230 432 230T386 232Q382 169 383 108T397 -13H398V-19Q396 -25 388 -37T370 -59T349 -76T332 -76Q330 -66 329 -57T325 -37Q320 -43 314 -48L310 -52Q308 -53 307 -54T304 -56Q300 -58 300 -58Q291 -61 285 -57V-19Q279
-21 276 -21H273L270 -18Q266 11 268 41T275 101V109Q275 132 275 155T277 201Q277 213 277 225T279 250Q264 252 249 253T219 253Q190 251 158 242T95 220L80 197Q67 193 59 191T45 187T33 184T16 183Q9 189 14 198T28 217Q26 223 31 231Q30 231 30 231T28 230Q17
228 18 236T27 253Q24 261 24 272T27 296T32 317T36 331Q36 337 36 343T38 356Q40 394 46 431T63 505Q64 510 64 516T67 528Q69 546 74 563T85 599L83 598Q84 600 84 602T86 607Q86 608 86 608T87 610L88 611Q92 617 101 629T122 651T142 665T153 659Q152 657 152
654Q160 657 162 648Q162 642 161 640Q166 648 172 657T187 675T205 688T224 691Q228 684 227 672T223 648T216 624T210 606Q208 601 208 597T205 589Q201 557 199 525T191 462T178 403T153 349Q150 345 145 338T131 323Q148 328 165 329T200 327Q221 330 243 332T288
337Q291 358 295 379T305 422Q306 487 314 547T346 647L372 658Z" />
<glyph unicode="5" glyph-name="five" horiz-adv-x="518" d="M135 217Q127 217 119 217Q112 217 108 224Q99 216 91 212T77 211Q68 211 63 220H52Q51 220 50 219T48 218Q41 217 40 218T39 227Q43 238 56 254Q54 271 54 292T52 331Q48 370 47 409T60 486V510Q60
516 60 522T59 534Q54 533 50 533T40 531Q30 530 29 534T31 545T44 561T61 577Q62 579 62 580T65 584Q71 604 88 620Q98 634 111 644T139 652Q142 649 143 646T148 641L145 638Q189 652 238 658Q296 678 352 691T444 704Q446 703 449 703Q449 702 449 702T450 700V698Q456
699 462 699T474 702Q485 700 481 691T466 670T443 650T424 637H423Q400 627 378 623Q347 606 313 598T243 583L220 553Q197 550 174 549T128 546Q133 530 133 511Q133 493 133 476Q138 440 142 404T146 331Q159 341 174 348T206 362Q241 378 278 386T355 392Q363
391 370 390T386 387Q408 385 427 379T464 360Q475 351 481 340T495 317Q500 310 502 301T504 282Q504 272 504 262Q504 253 505 244Q507 229 500 214T482 185T459 160T435 140Q402 115 366 95Q335 66 300 40T228 -10T156 -55T88 -95Q74 -103 61 -113T34 -132Q17
-139 17 -133T21 -117Q20 -117 20 -117T18 -116Q10 -112 12 -102T22 -81T38 -60T49 -47L67 -53Q99 -24 134 -1T208 46Q228 64 252 88T298 137T336 186T357 232Q361 252 352 269T326 300Q321 304 316 307T306 312Q273 310 239 302T175 283Q178 281 182 282T192 283L135
217ZM424 235Q423 236 423 238Q408 201 381 164Q386 168 391 172T401 182Q420 215 424 235ZM317 115Q328 123 337 130T358 145Q353 143 348 143T338 140Q333 133 328 127T317 115ZM73 -51Q73 -51 72 -53Q72 -53 76 -51H73ZM413 260Q413 259 412 259Q412 259 412
258L413 259V260V260Z" />
<glyph unicode="6" glyph-name="six" horiz-adv-x="595" d="M286 -5Q263 -4 238 -1T188 7Q176 9 166 11T144 19Q140 15 137 12T130 5Q127 12 124 19T118 34Q109 40 99 47T78 66Q48 91 33 131L32 130V132Q12 182 12 246Q12 310 27 372T71 489T136 574Q150 586 166
598Q178 610 190 621T216 646Q228 658 244 670T279 691T315 705T349 708Q377 705 404 701T459 692L402 626Q397 627 391 627T380 630L359 615L357 614Q357 617 358 619Q358 621 357 621T353 621Q337 623 318 620T284 614Q267 610 245 602T201 583L190 569Q190 568
189 567Q177 543 169 514T155 458Q146 418 141 379T136 299Q174 337 216 368T293 413Q317 423 343 424T396 429Q418 431 442 421T488 395Q493 393 498 391T509 387Q521 381 529 375T544 357Q552 339 554 317Q560 305 564 292T574 267Q585 241 582 210T566 150T533
95T490 56Q467 42 445 27T397 3Q377 -3 358 -4T319 -4Q311 -5 302 -5Q294 -5 286 -5ZM328 331Q264 321 224 300T165 231V216Q165 154 183 97Q184 96 185 96Q188 94 191 92T198 88Q198 88 199 87Q210 83 223 81T244 76Q251 74 258 73T273 69Q284 68 295 68Q306 68
319 67Q346 64 374 64Q389 66 404 68T433 75Q441 110 448 141T457 202T449 259T414 318L413 317Q412 319 411 320T409 323Q409 326 411 332Q391 336 370 335T328 331ZM437 77Q448 81 459 85T482 97L488 116Q474 106 462 96T437 77ZM150 272Q147 269 144 266T139
260H141L150 272V272Z" />
<glyph unicode="7" glyph-name="seven" horiz-adv-x="633" d="M267 641Q310 647 353 648T439 649Q462 647 486 645T535 639Q555 640 574 640T613 637Q624 635 620 625T604 604T581 583T563 571H562V570H561Q559 568 559 568H561Q564 561 561 553T552 536T540 521T528
509Q507 488 492 476T465 452Q434 401 409 349T360 242Q345 185 329 130T295 20L294 19Q288 -4 281 -30T275 -80L285 -72Q285 -98 269 -119T231 -152Q226 -154 222 -156T212 -153Q209 -135 210 -117Q199 -123 193 -117Q188 -112 190 -104T193 -90Q194 -54 198 -21T209
45Q208 56 208 65T211 86Q220 133 239 191T284 311T342 431T410 537Q390 539 372 543T337 550Q334 550 332 550T326 551Q298 547 271 543T215 534Q202 532 182 527T140 516T97 508T60 507H59Q58 507 58 507Q58 508 57 508Q51 513 55 522T69 541Q67 543 66 545Q41
542 16 542Q10 548 14 557T29 577T50 595T69 606Q69 607 70 608H73Q85 611 97 613T122 618Q133 623 143 628T168 637Q195 643 222 645T277 654L267 641Z" />
<glyph unicode="8" glyph-name="eight" horiz-adv-x="473" d="M149 627Q164 635 180 643T212 657T245 665T278 663Q297 661 321 655T368 640T410 620T439 597Q451 582 454 557T456 504T446 451T428 411Q411 388 394 373T357 348Q355 346 354 345T351 341Q348 340
345 339T339 337Q383 321 411 299Q438 277 449 247T460 184T447 118T414 57T366 8T309 -21Q274 -30 229 -24T142 1Q137 -4 132 -8T122 -18Q110 0 102 23Q83 37 69 53T48 89T43 131T59 177Q79 212 104 245T162 308Q146 313 132 317L120 320Q118 317 115 314T110
309Q104 314 97 318T85 327Q63 333 47 344T22 381Q-3 470 32 527T149 627ZM302 575Q292 579 282 582T261 590L250 578Q232 595 211 598H207Q195 599 180 596L139 548L125 550Q119 536 119 514T121 470T130 428T143 400Q146 394 150 391Q161 388 172 386T194 382Q206
378 220 375T250 366Q258 370 267 373Q282 378 298 381T332 387Q335 403 337 426T340 471Q340 494 336 513T322 540L315 534Q314 539 314 543T315 553Q316 555 318 558T322 566Q317 568 312 570T302 575ZM279 46Q294 43 309 42T341 42H345Q355 68 356 95T354 150T340
203T318 253V254Q292 267 263 277T203 297Q199 295 196 293T189 289Q187 282 184 277T179 265Q167 226 161 180T166 91Q191 76 221 65T281 46H279V46Z" />
<glyph unicode="9" glyph-name="nine" horiz-adv-x="562" d="M293 707Q313 705 344 701T405 685Q410 683 415 682T425 680Q435 678 445 677T466 672T486 664T503 651Q511 640 517 612T528 554Q533 559 538 563T550 572Q545 550 541 528T534 482Q533 474 533 467T530
453Q522 393 510 335T466 225Q446 193 425 163T372 109Q369 104 366 99T359 89Q349 76 339 66T317 45Q314 43 310 39T302 31T297 26T297 27Q297 28 297 28Q298 28 298 29Q289 21 278 13T259 2T252 4T264 28Q264 29 265 29V30Q267 32 269 39Q257 23 242 8Q239 3
236 0T229 -9Q226 -12 216 -20T197 -33T181 -39Q176 -39 182 -25Q181 -27 182 -22T187 -10T195 5T201 15Q216 35 233 53T268 89Q295 131 317 177T356 272Q352 270 349 269T342 265Q328 257 315 249T286 238Q264 233 246 241T208 255Q183 263 158 271T109 290T67
318T33 360Q12 396 12 437Q12 478 28 517T74 592T139 654T215 695T293 707ZM163 548Q160 540 158 532T154 514Q160 490 167 464T183 413T206 371T240 344Q241 337 238 328Q244 326 249 325T261 322Q270 320 279 316T297 308T315 303T333 303Q341 305 350 309T371
319Q382 358 389 392Q392 410 395 432T399 476Q399 499 393 519T372 554Q365 560 371 570T388 592Q372 608 340 621Q321 623 306 624T283 625Q238 619 204 599L175 556Q174 556 173 555L163 548ZM130 611Q120 602 112 592T98 570Q106 579 116 588Q130 605 149 621Q150
623 150 623T152 626Q141 621 130 611Z" />
<glyph unicode=":" glyph-name="colon" horiz-adv-x="307" d="M168 577Q181 585 195 588T221 577Q242 571 258 553Q284 523 276 491T241 433T179 390T116 373Q115 373 101 372T69 372T37 377T19 392Q16 400 14 408T14 424Q20 440 36 465T74 515T120 557T168 577ZM90
73Q68 85 61 105T56 147T73 192T105 230Q119 246 137 259T175 279T214 285T250 272Q284 246 291 218T288 164T252 116T198 81T140 65T90 73Z" />
<glyph unicode=";" glyph-name="semicolon" horiz-adv-x="272" d="M168 135Q151 121 133 114T97 111Q86 106 75 106Q65 106 61 114Q52 130 57 153T77 200T112 247T154 284T197 300T232 287Q235 289 238 289Q241 289 244 290Q246 290 246 290T249 289Q253 278 245
262Q247 262 247 262T250 261Q252 260 252 257T253 255Q254 241 243 228L240 219V217H246Q249 216 252 216T259 214Q259 212 259 212T260 209Q255 167 236 120T196 26Q188 6 181 -11T166 -42Q164 -45 154 -58T131 -81T111 -96T103 -85Q104 -83 104 -82Q104 -81
105 -79Q105 -77 106 -77Q113 -60 122 -41T140 0Q145 11 148 22T156 44Q156 69 158 91T168 135ZM239 535Q236 521 229 510Q234 489 215 461T168 410T108 375T55 377Q34 389 36 420Q35 421 34 421Q34 421 33 422Q12 425 13 438T28 468Q33 478 41 487T54 502Q57 506
60 509T68 517Q78 532 91 544T119 566T148 581T176 586Q182 585 188 582T198 576Q200 574 201 573T204 569Q218 567 230 559T239 535Z" />
<glyph unicode="&lt;" glyph-name="less" horiz-adv-x="411" d="M110 326Q124 318 138 310T163 294Q219 245 275 197T384 97Q390 91 394 88L392 86Q393 76 387 66T371 46T350 31T330 24Q311 42 291 58T251 92Q222 118 194 145T134 196Q126 202 114 207T90 219T68
232T53 249L59 255Q54 258 49 260T38 267Q32 265 30 265Q23 264 22 265T21 274Q21 276 23 280Q20 283 17 285T12 292Q12 303 23 319T49 346Q63 361 81 379T122 418Q153 449 185 479T250 539Q262 550 274 561T298 583Q307 595 316 607T336 630T358 647T383 654Q385
654 385 654T388 653Q388 651 388 650T389 647Q399 649 399 643Q399 637 394 630T383 615T374 604Q373 604 373 603Q369 598 367 595T362 590Q354 583 347 577T332 564Q316 548 301 532T268 500Q243 477 217 455T169 406Q159 394 146 376T118 338H120L110 326Z"
/>
<glyph unicode="=" glyph-name="equal" horiz-adv-x="426" d="M266 514H268Q295 516 322 516T376 516Q387 513 380 501H393Q404 499 399 489T383 468T360 448T342 436Q317 431 292 429T242 424Q197 415 151 408T62 411Q51 406 42 405T27 406Q19 410 24 423Q22
423 16 425Q10 431 14 439T26 456T43 472T56 483Q79 500 104 507T156 517T210 519T265 514Q265 514 267 515L266 514ZM133 319L157 325Q183 330 212 334T271 340Q279 341 287 341Q296 341 304 342Q316 343 332 344T363 344T392 339T414 322Q397 306 382 291T349
260Q346 264 343 266T335 271Q331 268 321 264Q287 255 253 254T183 253Q149 253 115 250T47 235Q36 234 36 240Q28 238 25 238Q10 237 13 246T27 266T51 289T67 302Q85 311 104 318T143 333L133 319Z" />
<glyph unicode="&gt;" glyph-name="greater" horiz-adv-x="438" d="M99 589Q104 585 110 584Q127 577 144 573T179 561Q239 532 295 495T397 409Q399 411 402 411T407 414Q417 416 419 414T419 402L416 396Q418 396 420 396T425 394Q427 384 422 374T407 356T388
340T369 330Q360 328 357 330Q354 330 352 331L349 334H348Q346 333 345 333T341 331Q312 299 281 271T221 214Q182 176 142 137T54 70Q35 62 36 70T44 89Q43 89 42 88Q36 84 30 81T20 78T15 81T18 95Q48 142 78 168T141 217Q150 225 158 233T175 249Q207 279 239
309T308 367Q297 378 288 388T271 404Q235 431 192 459T106 501Q97 504 85 506T61 513T38 522T20 536Q8 550 15 566T40 596T80 614T122 613L99 589Z" />
<glyph unicode="?" glyph-name="question" horiz-adv-x="431" d="M134 525Q129 523 125 522T117 520L97 474Q96 473 96 472L95 470H96Q94 469 94 469T91 467Q85 460 77 452T60 437T43 427T30 427H29Q22 427 20 430Q15 438 17 452Q10 460 13 473T24 500T41 527T55
546Q67 560 82 574T114 601Q143 625 174 642T226 664Q251 668 261 670T279 672Q287 672 297 670T333 665Q346 663 362 654T383 639Q406 619 413 592T418 536T404 477T376 418T343 366T310 324Q306 319 303 316T295 308Q283 291 273 276T256 246Q249 231 251 212T253
176L237 162L239 160Q243 164 246 166Q243 143 229 125T194 96Q183 90 179 92Q170 87 164 93Q159 101 157 109T153 127Q140 135 140 152T145 188T159 224T173 250Q176 255 179 258T185 267Q200 292 219 315T260 363Q265 374 269 384T279 406L273 395Q275 400 277
404T279 406Q285 419 292 436T306 471T315 502T315 525Q308 543 294 552T262 566T226 570Q208 570 192 570Q178 570 163 570T135 563Q133 561 131 561T127 558Q127 549 128 545T129 539T131 535T132 526Q133 526 133 525Q133 525 134 525ZM206 14Q214 20 217 23L232
36V31Q237 33 240 29Q240 29 241 30Q249 36 256 41T275 45Q279 40 281 34T286 23Q301 32 304 20V15Q302 -7 285 -24T250 -52Q245 -54 241 -56T232 -53Q229 -50 227 -47T223 -40Q220 -42 218 -43T212 -46Q201 -57 190 -63T173 -64Q167 -56 167 -43Q167 -31 166 -21L206
14ZM317 387Q313 382 310 379T302 371Q290 352 276 334T243 294Q248 299 253 303T264 313Q278 331 292 349T317 387ZM223 148Q225 150 227 152T233 156H230Q228 154 227 152T223 148ZM273 395Q272 393 272 392Q272 391 271 390L273 395V395ZM270 387Q269 385 269
385Q269 386 270 388V387ZM98 472Q96 470 96 470Q96 470 98 472ZM271 390L270 388Q270 389 271 390Z" />
<glyph unicode="@" glyph-name="at" horiz-adv-x="601" d="M420 431Q420 422 419 418Q420 416 420 414Q420 413 421 411Q424 416 427 419T433 428Q434 418 437 407T438 386Q436 372 431 360T419 336Q421 317 421 299T420 265Q422 265 430 263L448 272Q488 292
502 332T506 415Q497 453 464 484T387 536T294 563T203 558Q179 544 160 521Q146 504 133 488T111 451Q108 446 106 441T102 429Q98 409 97 389T96 349Q95 300 96 265T107 202T140 147T206 88Q241 62 281 53T363 57Q384 63 403 72T438 99Q443 104 446 111T457 121H458Q470
134 482 146T506 171Q512 166 512 159T508 144T499 129T491 119Q489 117 488 115T484 111Q495 119 506 127T528 145Q519 108 490 80T423 32T346 -4T278 -30Q254 -40 227 -38T174 -27Q152 -21 135 -7T98 19Q80 30 66 52T42 101T24 152T15 196Q9 247 15 293T39 383Q44
411 48 426Q60 461 84 495T137 553Q195 603 250 622Q252 623 254 623T258 625Q285 635 312 642T368 651Q416 652 460 632T536 577T581 497T583 402Q575 375 568 349T544 299Q524 270 500 242T444 196Q435 190 423 185T401 179T385 180T381 195Q379 195 379 195T376
194Q368 187 361 185T349 187Q347 191 347 194Q345 194 345 196Q342 196 340 199Q336 214 335 228T335 258Q317 248 298 242Q283 237 262 234Q236 228 212 230T170 248Q153 261 149 277T149 310Q148 336 161 361T195 408T243 446T297 469Q318 479 341 482Q350 482
360 477Q374 491 393 496H396Q397 495 401 495Q406 480 407 465Q418 470 421 462L422 463V461Q422 459 424 451T428 438L420 431ZM343 378Q343 389 342 400T338 424L324 414L314 404Q313 404 312 404T310 405L302 400L292 390Q290 394 287 397T282 404Q253 404
235 391Q226 379 222 366T220 339Q226 325 240 319T271 313T303 320T328 335Q330 343 331 346L330 345Q330 354 332 359Q334 364 341 374Q341 374 339 376H343V378V378ZM455 78L456 79V80Q456 79 455 79Q455 79 455 78Z" />
<glyph unicode="A" glyph-name="A" horiz-adv-x="713" d="M192 600Q194 605 202 615T220 635T239 652T254 658Q272 678 298 682Q303 681 304 676Q302 665 298 657T287 640V637Q285 625 285 613Q285 601 283 590Q286 602 295 614T316 635T339 649T359 651Q362 650
370 635T389 598T411 555T431 515Q440 498 448 481Q482 418 515 357T586 235Q597 217 612 194T644 145T675 95T698 49L701 46L698 43Q696 34 688 22T669 1T648 -13T633 -13Q623 -3 615 6T598 26Q589 20 578 17L573 12Q569 16 567 19Q558 22 549 30T532 48T517 68T505
85Q474 124 445 164T388 247Q370 236 351 226T313 207T281 192T257 183L296 242Q265 228 235 211T176 180Q170 153 165 127T154 74Q149 48 146 26T132 -16V-17H131Q128 -23 125 -29T116 -42Q113 -45 107 -51T93 -64T78 -72T66 -70Q64 -47 66 -25T73 21Q60 0 35
-12Q30 -14 26 -16T16 -13Q12 -7 13 9T19 45T31 87T45 128T57 162T64 179Q67 187 70 195T77 212Q79 217 80 222T83 232Q103 314 125 397T177 561L175 560Q177 564 178 567T182 575Q184 581 187 587T192 600ZM309 564Q269 493 245 417T198 262Q225 277 254 288T316
310Q323 312 329 314T344 319Q342 321 342 323Q334 336 324 352T306 386T293 422T291 457Q294 464 300 474T315 492Q312 501 310 509T305 527Q305 537 315 552L309 564V564Z" />
<glyph unicode="B" glyph-name="B" horiz-adv-x="562" d="M130 405Q125 444 116 484T107 566Q101 564 95 563T81 560Q70 546 56 534T26 524L22 527Q16 544 27 560T58 591T99 615T135 631L200 690Q201 679 202 669T207 649Q246 656 293 659T386 661T472 649T537
620Q537 618 537 618T538 615Q534 585 516 560T473 512T419 471T362 436Q413 441 460 435T531 407Q542 397 545 384T547 356T541 328T531 303Q514 261 480 224T402 157T313 102T225 59Q219 51 211 42T195 25T179 16T166 18Q165 19 165 21L191 44L166 24Q168 32
168 36Q133 23 95 13T20 13Q12 16 12 23T13 40T20 57T27 69Q44 90 67 106T119 114Q112 106 105 99T92 84Q121 80 167 91Q163 123 156 154T146 205Q138 255 137 304T130 405ZM266 135Q265 133 264 130T261 123Q288 135 315 148T365 176T408 205T441 233Q459 251
467 269T474 315Q474 335 452 345T402 359T346 364Q319 364 307 363Q290 361 275 359T245 355Q250 300 257 247T266 139V135V135ZM226 567Q231 531 233 495T240 421Q275 442 313 459T387 496Q407 508 426 523T465 552Q444 567 416 575T355 586T289 588T223 584L226
567V567Z" />
<glyph unicode="C" glyph-name="C" horiz-adv-x="541" d="M452 640Q457 649 462 657T476 674Q479 677 476 669T472 655Q470 646 470 629T472 604Q474 577 478 551T485 499Q485 498 486 498L485 497Q485 496 485 496T486 494Q485 488 477 476T459 453T438 436T420
436V437Q401 477 365 509T283 555L252 526Q249 532 249 533T235 529Q202 503 186 468T166 393T164 312T172 233Q174 223 174 213Q174 204 176 195Q180 182 186 171T198 146Q198 145 200 143L199 142Q199 136 194 126Q241 105 296 105T407 129Q418 133 428 144T447
168T465 191T478 204Q481 205 478 198T470 186L524 222Q522 217 519 211T514 203Q507 193 504 189T498 182T492 176T482 164Q458 136 432 110T373 69Q329 49 277 43T177 48T89 88T32 169Q13 222 12 279T25 392T69 496T141 582Q170 607 203 618T272 630Q307 630
341 620T404 590Q406 608 413 625T436 657L452 640ZM524 222Q529 233 528 225L524 222Z" />
<glyph unicode="D" glyph-name="D" horiz-adv-x="594" d="M126 428Q126 430 123 450T117 496T111 546T109 579Q95 577 82 574T56 566L51 559Q43 556 36 554T21 552Q15 558 19 567T31 584T48 600T61 611Q103 641 162 648T282 648T399 619T492 569Q513 552 533 527T566
474T581 415T570 356Q544 302 506 258T420 178T321 115T213 66Q166 49 120 37T30 2Q4 -10 16 16Q27 36 44 53T85 76Q108 87 133 94Q128 117 128 143T128 195T131 248T133 296Q133 328 131 361T126 428ZM386 534Q349 554 308 565T223 581V570Q223 513 226 456Q228
413 231 370T240 285Q243 259 250 226T259 167Q260 159 259 150T255 130Q293 144 335 163T415 208V209Q417 221 417 230T419 246T420 263Q420 272 420 284Q418 345 403 402T369 518L386 534Z" />
<glyph unicode="E" glyph-name="E" horiz-adv-x="483" d="M182 142V117Q199 119 213 123T244 132T278 142T320 150Q371 156 423 156H447Q454 156 462 155Q468 153 468 150T466 141Q459 118 444 105Q443 103 442 101T440 97Q435 89 429 82T416 68V76Q411 71 406
65T394 53Q397 55 400 56T401 56Q380 42 377 45T379 60Q374 62 365 62T346 63T328 61T314 60Q284 57 255 52T197 38Q185 35 169 29T136 17Q119 8 100 7Q90 4 79 4Q75 2 70 1T60 -4Q48 -18 35 -26T15 -28Q15 74 14 174T12 378Q12 420 13 461T12 545Q17 548 22 551T32
557Q30 561 31 564L15 557Q15 557 16 559Q17 561 22 568T35 582T51 597T66 606Q71 611 75 614T83 619Q99 628 116 634T152 646Q153 646 154 646T157 645Q158 642 158 640T160 634Q198 644 241 647T325 651T405 651T471 649L449 624Q455 624 463 622H467Q469 612
464 602T449 583T430 567T412 557Q395 554 378 554T344 554Q258 547 174 513L182 525Q174 523 168 522T156 519Q160 487 163 456T169 393Q189 403 216 412T272 429T326 441T368 446Q376 445 375 438T368 424T356 410T348 401Q335 388 322 382Q318 376 314 371T306
360Q274 356 239 347T175 321L174 319Q176 293 176 266T179 212Q179 195 180 178T182 143Q182 143 183 144L182 142ZM463 622Q463 622 464 623L463 622Z" />
<glyph unicode="F" glyph-name="F" horiz-adv-x="542" d="M150 657Q145 639 144 623H145Q165 640 172 632Q174 633 177 634T183 636Q227 642 270 649T352 664T423 681T479 700Q495 689 507 676T529 657Q526 642 519 635T501 624T474 616T435 600Q395 586 357 576T283
558Q260 552 237 546T191 534Q191 518 191 501T189 468T188 439Q188 426 188 418V417L192 421Q193 411 195 396T201 361Q230 375 260 387T320 411L300 382Q337 391 374 396T447 404Q458 402 454 392T438 371T415 350T397 338L373 332Q353 314 344 310Q313 296 281
289T215 275H213Q216 250 219 226T223 180T223 141T218 115Q215 110 209 102T194 85Q195 80 195 77T197 69Q199 59 201 45T206 21Q207 15 209 4T210 -4Q211 -12 203 -24T184 -48T162 -65T145 -65Q137 -48 132 -29T123 10Q116 1 107 -7T91 -19T79 -23T75 -13Q75
-9 75 -7T76 -2Q77 2 77 11Q77 14 77 17Q77 21 77 28T76 48Q76 61 76 81V121Q70 144 67 166T62 212L44 209Q35 208 35 213T38 225T47 239T55 248L61 254Q60 274 60 294T63 335Q60 375 60 414Q60 454 65 494Q57 491 51 488T38 481Q17 467 14 470T16 483T31 505T45
522Q58 534 76 545Q76 546 76 547T77 549Q66 544 57 541T38 533H40L32 530L38 533Q18 524 18 531T29 550T52 576T71 592L83 598Q83 601 85 607L150 657ZM32 530Q31 530 31 530T29 529L32 530V530ZM44 535Q43 535 42 534L44 535Z" />
<glyph unicode="G" glyph-name="G" horiz-adv-x="769" d="M615 511Q621 513 623 505Q623 503 623 502T624 498Q632 500 639 501T655 504Q702 525 757 538Q744 521 732 505T707 473L686 467Q678 460 672 456T664 449Q655 444 642 439Q645 425 641 410T633 380L619
370Q617 364 617 358Q617 352 616 346Q616 341 615 332T613 312T612 292T611 277Q608 232 607 189T604 102Q603 77 602 52T596 4T578 -39T541 -73Q536 -75 532 -77T523 -74Q517 -63 516 -47T514 -13T516 21T518 50Q519 70 520 91T523 132Q498 112 474 97T433 75Q409
65 385 55T337 37T287 27T235 28Q217 31 201 40T167 56Q133 67 110 76T71 99T45 135T24 194Q6 262 14 327T51 452T124 562T223 652Q260 678 306 692T399 704Q415 703 427 701T454 696Q462 694 466 695T482 700Q480 686 473 676T456 655Q439 638 425 634T394 631L386
623Q367 628 343 619T294 594L288 583Q282 580 276 578T264 573Q257 568 251 562T239 551Q232 541 227 528T219 502T214 478T212 462Q207 422 208 377T220 289T251 206T303 138Q309 138 315 138Q321 138 327 137L318 126Q332 117 348 112T380 99Q412 107 442 121T501
149Q508 154 514 160T527 174L526 173Q523 170 527 178Q532 219 537 258T548 339Q550 354 552 371T557 407Q534 397 512 388T468 368Q439 353 411 338T352 310Q341 309 342 316T350 332T364 349T374 360L386 369Q386 369 387 371Q389 372 389 372Q390 372 392 373Q393
374 393 374Q394 374 395 375Q388 375 383 378Q374 382 377 392T388 413T405 434T420 448Q461 480 515 497T620 517L615 511ZM173 523L192 542Q212 574 241 599Q252 608 265 615T293 629Q296 631 304 637Q292 636 281 634T257 627Q215 613 184 585T130 521T94 444T78
360Q76 328 81 286T105 206Q85 293 92 354T132 469Q134 477 136 485T141 501L173 523Z" />
<glyph unicode="H" glyph-name="H" horiz-adv-x="575" d="M504 673Q505 672 505 671Q505 670 506 668V659L533 675Q531 670 527 662Q532 643 532 622Q532 601 530 580T526 538T523 498Q521 442 521 387Q521 332 522 277Q523 268 523 260T526 243Q530 204 535 165T548
88Q548 85 550 77Q554 63 557 49T562 21L563 19L562 18Q562 17 562 17T563 15Q562 9 554 -2T536 -24T516 -41T499 -43Q497 -43 497 -45Q497 -43 497 -43T496 -41Q492 -28 489 -15T483 11Q475 33 467 52Q462 51 457 54L456 53V55Q443 72 436 105T425 174T419 245T415
301L425 309Q424 313 424 316Q424 320 423 324Q408 314 398 314Q363 313 331 313T266 310T200 303T130 290V255Q130 241 128 214T126 157T128 101T142 60Q143 59 146 59L138 50Q140 42 140 35T142 19Q140 13 132 1T114 -21T94 -38T77 -40H76V-39Q75 -37 74 -35T72
-30Q57 -43 48 -37Q46 -39 46 -39V-32Q43 2 35 34T23 102Q18 140 17 178T14 254Q10 256 14 267Q14 370 26 470Q29 492 31 519T39 574T55 627T82 669Q90 677 101 686T126 694Q132 687 132 680Q140 688 149 696T165 708T175 710T176 696Q174 692 172 689T168 681Q165
674 162 667T156 650Q158 645 162 641T170 632L148 611Q138 555 135 485T130 353Q143 359 156 362T183 369Q241 384 301 389T416 392L412 387H420Q418 446 421 502T438 607V619Q440 628 448 639T467 661T487 677T501 679L504 682V673Z" />
<glyph unicode="I" glyph-name="I" horiz-adv-x="410" d="M73 659Q81 661 89 661T106 663Q116 665 125 667T144 672Q189 681 232 685T320 680L312 671Q313 671 314 671T316 672Q328 674 340 676T367 682L365 680Q372 683 378 686T393 689Q394 688 398 688V686Q381
670 366 655T334 625L336 623Q331 623 326 620T315 615Q309 613 303 612T290 610Q289 579 283 549T274 490Q272 470 270 454T266 422Q266 398 266 374T264 325L261 283Q262 276 262 269Q262 263 263 256Q265 215 265 174Q265 134 272 94L274 95V88L273 87Q271 83
269 78T261 66Q266 68 271 68T282 70L283 71H287Q287 71 288 70Q296 72 304 72T321 74Q329 76 343 78Q345 78 351 78T363 77Q364 77 365 77T367 78H371L370 77Q377 74 372 64T356 42T332 22T310 12Q297 11 284 10T258 7Q250 5 244 5Q231 -1 217 -3T186 -10T154
-20T119 -42Q106 -51 98 -51Q89 -59 79 -63T60 -68Q55 -63 57 -59T62 -50Q75 -24 95 -6T139 27Q131 171 134 314T145 602Q145 606 150 616Q136 614 122 612T94 607Q74 603 55 598T16 593Q10 599 15 609T30 629T52 647T71 658L72 659H73V659ZM98 -15Q94 -19 93 -20T90
-23T88 -27T83 -34L96 -28Q101 -22 106 -17T117 -6V-3Q115 -4 111 -5T104 -9L98 -15V-15Z" />
<glyph unicode="J" glyph-name="J" horiz-adv-x="565" d="M333 665Q336 666 344 668Q351 670 357 672T371 676Q375 678 378 678T386 681Q394 687 402 691T419 693L420 694V691Q455 700 489 702T552 691Q554 684 552 678T545 667Q547 662 542 654T530 639T517 625T508
617Q495 606 481 599T449 587Q449 576 449 564Q449 553 450 542Q451 491 452 438T446 332Q447 314 449 296T456 264Q458 256 461 247T465 230Q466 176 448 119T394 21Q361 -18 318 -40T229 -64T141 -47T66 17Q36 59 27 103T12 197L63 241Q66 243 70 247L78 254V253Q90
261 103 259Q116 249 125 223T145 166T170 110T207 75Q214 72 229 72T251 74Q282 79 298 96T325 139Q327 144 327 150T330 161Q329 162 329 162Q329 163 328 164L331 167Q336 193 339 218T346 270Q346 265 346 259T346 256Q346 260 346 264Q346 268 347 272H346Q347
272 347 273Q348 285 348 297Q348 310 349 323V330Q347 349 347 367Q347 386 347 405Q345 425 342 446T338 487T337 528T345 568Q340 567 336 567Q332 567 327 566Q319 564 311 563T294 560Q279 559 284 570Q267 567 252 565T220 563Q215 567 217 574T226 588T240
603T256 617V621Q262 626 268 630T281 639Q293 651 308 660T340 678L333 665ZM393 120Q397 139 397 157T393 194Q389 180 382 163Q376 145 367 121T345 76T315 39T275 24Q272 26 272 34Q272 37 273 39Q259 29 244 22T214 9Q238 1 264 1Q293 -1 317 8Q330 13 341
20T364 33Q368 40 371 47T376 59Q381 73 385 89T393 120Z" />
<glyph unicode="K" glyph-name="K" horiz-adv-x="580" d="M423 529Q413 515 397 500T364 470Q335 442 307 415T249 360H250Q337 322 412 272T548 147Q550 146 550 146T553 144Q552 143 551 143T549 141Q549 136 547 132T543 123Q552 112 558 101T567 79H568L567
78Q567 70 566 66Q565 64 564 63T562 59Q562 57 562 54T561 48Q556 28 540 12T505 -12Q493 -15 483 -10T465 6T450 27T438 46Q441 48 443 51T449 57Q421 77 390 92T329 124T273 158T228 201Q228 207 229 209Q204 220 179 230T129 250Q131 233 132 218T136 185Q138
167 140 143T146 92T153 41T161 -5L166 -1Q168 -13 169 -24T172 -48Q170 -54 162 -65T144 -87T124 -104T107 -106Q106 -106 106 -107V-105Q99 -92 95 -72T86 -26Q81 -28 77 -29T69 -31Q67 -29 67 -29Q61 -32 56 -30L52 -34Q51 -31 51 -27Q51 -24 51 -21Q43 28 38
77T27 178L34 184L31 232Q29 230 28 230Q15 229 19 239T30 259Q27 319 27 380Q27 399 28 426T29 481Q29 510 27 537T20 585L12 579Q13 585 14 591T17 603Q20 610 25 619T38 636T54 650T71 659Q78 667 86 675T101 689T114 694T121 687V674L119 673Q117 654 117 635T119
598Q127 601 130 592Q128 572 125 553T119 513Q119 511 119 509T118 504Q117 478 117 453Q117 428 117 403L120 352Q177 406 237 455T360 554Q382 571 404 588T450 619T499 643T553 657Q559 656 559 651Q559 646 556 641T549 630T543 623Q519 595 490 576T430 537Q428
535 427 533T423 529Z" />
<glyph unicode="L" glyph-name="L" horiz-adv-x="592" d="M494 98Q514 102 535 104T568 104T579 90T553 54L543 63Q535 52 524 43T504 28Q470 8 420 6T316 5Q305 2 294 0T272 -7Q253 -12 232 -20T190 -35T146 -47T104 -50L101 -47Q94 -49 88 -50T77 -50Q69 -49
70 -42T75 -26T85 -10T92 -2Q82 -11 72 -16T57 -16Q51 -6 50 4T50 26V53Q48 51 42 47Q37 43 28 38T13 38Q12 85 28 128T61 215Q69 261 82 293V294Q83 296 84 298T86 302Q87 304 91 308T100 319Q102 330 103 340T107 360V385Q100 380 94 378T83 381Q82 384 82 392T85
410T89 428T93 442Q95 467 95 488T95 529Q93 543 92 556T92 582Q90 590 87 594Q89 596 91 597T95 600L98 609L90 605Q90 605 92 609Q97 617 107 629Q113 642 125 654Q134 663 144 671T168 681Q169 680 173 680Q177 669 173 658T164 636Q175 645 186 650Q189 651
192 651T199 651Q207 644 214 632L201 620H202Q210 589 205 557T192 492Q200 494 201 485Q193 417 192 350T192 214Q193 179 195 142T193 69Q195 70 196 70T200 72Q227 82 254 84T307 86T359 83T410 82H412Q426 85 439 88T466 93Q470 94 473 94T482 96Q485 98 488
99T496 102L494 98Z" />
<glyph unicode="M" glyph-name="M" horiz-adv-x="624" d="M373 538Q375 543 377 547T382 557Q397 588 414 616T455 670Q462 678 469 683T486 694Q488 695 490 695Q493 695 495 696Q498 697 501 697Q504 695 506 692Q508 681 503 662T489 623Q497 609 502 575T511
502T516 428T519 377Q522 327 525 277T538 178L539 177Q548 146 561 118T586 61Q588 59 588 58T591 55Q589 53 588 53T586 51Q584 44 580 38Q586 25 596 13L589 6Q596 -13 602 -33T612 -73Q610 -79 602 -91T584 -113T563 -130T546 -130V-131V-129Q525 -84 510 -38T477
54Q468 77 458 103T439 155T424 209T418 263Q416 267 416 269L419 272Q424 285 434 298Q433 305 432 312T430 327Q424 359 419 391T411 457Q398 431 386 404T366 351T355 299T355 249L364 255Q356 233 343 217T309 189Q304 187 300 185T290 188Q287 199 287 209L283
205Q283 203 285 201L282 198Q281 197 281 194Q278 190 270 180T253 159T233 144T217 145Q195 195 176 246T140 352Q135 319 132 287T125 221Q125 170 126 121T127 20Q127 18 128 18L127 17Q126 12 120 3T106 -16T88 -34T71 -43V-44Q68 -47 62 -53T48 -66T33 -74T21
-72Q15 -48 14 -16T14 55T21 136T35 220Q34 246 34 271Q34 297 34 323Q34 345 34 366T39 405T54 440T83 471Q85 482 87 492T93 513Q95 519 97 525T101 537Q100 542 100 546T99 555L111 565Q113 575 113 584T111 603L176 665Q181 650 180 637T174 609H183Q203 558
214 505T239 399Q245 379 250 361T261 325Q267 304 276 287V289Q279 303 282 316T291 343Q296 358 302 373T314 404Q315 405 315 405T315 407Q318 416 323 428T332 454T339 481T337 504L373 538ZM348 248Q348 247 348 246T347 243L353 248H348V248ZM501 697Q500
697 500 698L501 697V697Z" />
<glyph unicode="N" glyph-name="N" horiz-adv-x="541" d="M119 697Q121 692 122 685T126 674Q131 659 136 649Q139 650 141 650T147 651Q148 653 152 657Q152 655 152 654T153 650Q161 638 165 622T172 591Q189 547 210 506T255 423Q269 397 283 370T312 317Q332
289 354 262T398 208Q396 237 396 266T396 324Q395 347 393 379T388 448T385 522Q385 560 390 594T406 657T438 702Q445 708 453 713T471 717Q477 713 477 698T477 664T472 628T468 602Q469 579 469 562T471 543Q476 484 485 426T504 309T520 192T529 74Q526 65
513 47Q515 45 516 45L514 43Q515 33 509 23T493 3T472 -12T452 -19Q447 -14 442 -10T432 0Q427 4 421 11Q418 14 416 17T411 25Q393 46 377 67T344 111Q331 125 319 142Q315 146 314 149Q291 178 269 207T227 267Q211 291 198 317T172 369Q165 382 159 394T146
419Q152 380 157 338T165 256T168 177T166 105Q163 92 153 79T130 56Q128 31 119 9T91 -32Q83 -40 74 -46T54 -53Q42 -50 41 -34T40 -9V100Q40 125 40 150T41 200L40 199Q14 287 14 375T17 553Q17 561 17 577T16 613Q16 633 17 652T23 685Q23 687 23 689T22 694L29
698Q35 706 44 717T63 736T80 747T90 740Q92 729 93 719T96 697Q107 703 118 702Q119 701 120 701Q121 701 122 700L119 697Z" />
<glyph unicode="O" glyph-name="O" horiz-adv-x="588" d="M149 634Q164 651 194 668T258 695T327 706Q361 706 385 689L391 695Q448 676 487 644T545 551Q550 535 549 519T553 487Q560 458 569 419T574 332Q567 270 534 210T451 106T338 38T209 26Q173 32 144
50T93 93T56 150T31 216Q20 255 16 299T15 387T33 473T72 548Q89 571 109 591T149 634ZM368 578Q363 583 356 586T342 592L336 586Q318 603 287 597T224 576L216 563Q196 554 185 541T169 512T161 477T158 437Q156 406 157 369T166 295T189 226T229 170Q237 162
246 157T264 147Q287 147 313 151T363 164T405 184T432 209Q453 247 456 298T451 401T420 500T368 578ZM279 91Q324 85 362 96T431 131T480 190T506 269Q497 246 484 225Q476 214 465 202T441 179T419 158T401 141Q389 130 355 116T279 91ZM121 562Q107 537 97
504Q127 552 170 586Q184 597 210 612T268 641Q247 641 224 634T181 615T145 590T121 562Z" />
<glyph unicode="P" glyph-name="P" horiz-adv-x="516" d="M96 643Q109 653 123 653Q129 655 135 657T146 662Q165 671 184 677T225 686Q260 689 298 686T373 672T440 640T493 590Q504 574 503 554T495 512T477 472T458 440Q444 417 432 397T407 358Q373 284 309
238T156 176Q157 134 157 92Q157 50 157 8V6L156 5Q152 -3 141 -17T118 -42Q107 -56 93 -67T71 -73Q69 -73 69 -75V-72Q68 -69 68 -67T66 -61Q62 -65 58 -68T50 -77Q43 -63 42 -38T42 13T46 64T50 100Q55 189 51 277T31 454Q24 489 16 525T17 595V596H18Q25 616
40 631Q48 639 59 648T84 656Q87 652 90 649T96 643ZM347 594Q302 613 250 617T157 616Q155 571 153 526T148 436Q150 404 151 374T153 311Q159 313 159 313L153 306Q153 302 153 299T154 290Q156 294 158 297T161 303Q162 306 164 300T170 292Q178 287 189 287T209
289Q234 290 258 292T307 303Q324 308 335 314Q338 316 339 318T343 322Q347 327 350 332T358 342Q370 371 374 403T375 467T361 528T331 579L347 594Z" />
<glyph unicode="Q" glyph-name="Q" horiz-adv-x="577" d="M427 657Q445 648 454 644T469 633T480 610T498 565Q501 557 504 550T509 534Q527 498 535 458T545 377Q560 327 564 279T550 197Q547 191 540 178T525 149T506 117T487 90Q497 73 504 58Q512 40 518 21T534
-15Q538 -21 539 -22Q538 -23 537 -23T535 -25Q533 -34 525 -45T507 -66T487 -80T471 -80V-81Q470 -79 470 -79T468 -76Q457 -59 442 -31T409 30Q398 22 387 15T362 5Q351 2 340 1T318 0Q274 -9 231 -8T152 7Q126 15 107 36T72 79Q63 92 56 104T43 131Q22 170 16
215T14 309T36 404T76 495Q89 518 107 538T142 579Q152 591 170 606T210 637T257 664T304 681Q328 693 351 696T394 691Q405 685 415 679T437 667L427 657ZM480 214Q482 235 479 273T469 356Q450 409 419 456T346 533Q332 542 316 546T282 556Q259 552 237 543T196
526Q167 512 147 488T112 432Q110 405 111 378T114 329Q115 300 115 273T119 222T129 177T151 136Q174 116 203 101T270 75Q294 68 327 69T386 75Q373 103 362 130T342 183T330 230T329 266Q332 274 339 284T354 304T373 318T393 322Q400 319 401 313T403 301Q403
296 403 292Q403 288 407 289Q411 244 427 206T465 131Q472 151 475 173T480 214ZM265 618Q242 608 221 592T181 557Q185 559 188 562T195 567Q215 581 247 595T315 618L324 628Q304 631 283 625L278 619Q270 619 265 618Z" />
<glyph unicode="R" glyph-name="R" horiz-adv-x="506" d="M348 414Q363 405 375 393T397 372Q428 339 444 311T467 254T476 198T478 137Q487 107 492 78T489 32Q484 21 477 13T461 -3Q458 -6 453 -10T442 -19T431 -24T421 -21Q417 -4 417 15T416 54Q410 81 401
108T384 161Q390 167 396 172T408 184Q403 202 398 216Q392 230 378 250T347 290T313 328T281 353Q266 353 256 359Q253 361 253 368Q225 357 196 348T141 329Q140 328 137 328Q137 309 137 290Q137 272 138 254Q139 245 139 237T142 219Q145 194 150 170T161 120Q162
115 163 109T166 96Q168 82 169 68T171 40V37L169 35Q166 28 158 17T141 -3T122 -18T106 -18H105V-17Q104 -6 104 4T101 26Q91 16 82 12T66 13Q62 23 61 32T59 53Q55 73 55 100T55 150Q52 210 52 268Q52 326 54 385V416Q52 438 51 460T52 505Q51 515 51 524Q51
534 51 544Q49 552 48 559T46 574Q33 570 24 569Q9 568 12 577T26 597T50 620T66 633Q67 634 68 634Q69 634 70 635Q81 645 91 651T115 661L107 651Q133 661 159 667T212 679Q227 682 236 683T254 685T272 686T298 685Q335 683 357 670T391 634Q399 628 402 625Q410
614 409 600T411 575Q416 564 421 554T427 532Q427 516 418 501T400 475Q389 458 375 445T345 419L348 414ZM147 473Q145 453 144 433T140 392Q144 392 147 392T154 393Q159 396 165 399T182 407Q197 415 218 427T254 449Q266 457 282 468T312 492T333 522T332
558Q328 566 326 569Q312 575 294 578T270 584Q240 589 206 590T145 584Q146 582 147 581T149 577L146 574Q148 566 150 559T154 543Q156 526 153 508T147 473ZM361 474Q359 479 358 484T354 494Q337 474 315 456T268 420Q299 431 326 444T361 474Z" />
<glyph unicode="S" glyph-name="S" horiz-adv-x="583" d="M454 626Q446 626 442 627L440 624Q433 623 427 622T412 619H409Q382 614 350 605T285 583Q246 557 207 521Q194 486 186 450T184 378Q212 377 243 385T305 402T368 418T428 422Q436 420 446 418T466 413Q493
416 512 415T543 402Q554 400 557 396Q569 376 570 358T566 322Q566 297 555 272T527 224Q514 200 495 178T454 135T412 96T375 61Q343 26 317 9T260 -14Q233 -25 205 -31Q203 -31 201 -31T196 -32Q188 -38 185 -41Q185 -39 186 -38T187 -34Q167 -37 151 -37Q135
-37 120 -35T88 -28T51 -17Q40 -13 30 -9T12 5Q20 13 28 20T44 35Q41 44 35 53Q36 62 42 73T58 94T79 110T100 115L101 116Q101 114 103 112Q109 104 115 104L108 96Q109 90 113 85Q117 77 129 70L131 72Q170 64 203 63T269 67Q285 82 300 97T332 129L333 130Q335
132 337 134T343 139L348 144Q356 152 364 160T382 176Q385 179 388 181T395 187Q404 220 404 253T390 326H387L385 324V325Q349 318 314 307T244 287T173 272T103 273Q92 275 82 280T62 290Q50 295 46 306T43 332Q39 345 41 360T50 392Q51 407 52 422T56 450T61
473T64 487Q65 490 68 496T74 508T81 518T84 523Q99 548 121 567T167 602T218 631T270 658Q293 670 315 683T364 699Q376 700 388 698T412 693Q418 692 424 692T438 690Q455 693 473 693T511 692L454 626ZM367 109Q370 116 372 122T378 136Q363 123 350 110T322
83L367 109ZM473 294Q471 296 471 298T468 303Q467 271 459 238Q465 243 470 248T482 258Q481 275 473 294ZM124 510Q145 536 173 559Q175 562 176 565T180 571Q166 563 155 556T137 543Q130 536 124 510ZM115 415Q117 405 121 400L130 442Q121 429 115 415Z" />
<glyph unicode="T" glyph-name="T" horiz-adv-x="662" d="M207 667Q251 667 295 664T370 663Q394 665 417 665T466 668Q477 668 487 669T509 668Q510 668 510 668T512 667H514H518L517 666Q525 661 516 647Q521 647 525 647T534 645Q546 646 564 646T601 646T632
642T649 632Q651 621 646 614T634 598Q608 566 585 561T534 562Q520 551 508 546H503Q504 547 506 551L502 546Q493 553 479 556T448 561T414 563T383 562Q381 548 378 535T372 507Q371 505 371 502Q371 500 370 498Q369 462 370 422T373 342T379 265T385 199Q390
159 398 121T408 41Q406 33 396 19T372 -7Q372 -9 372 -11T373 -16Q372 -22 364 -33T347 -54T327 -71T309 -74Q308 -75 308 -75Q308 -76 307 -77Q307 -75 307 -74T306 -72Q290 -5 284 66T277 209T278 354T280 494Q280 506 291 522T317 552Q318 554 319 556T321
561Q318 561 315 561T308 560Q279 555 253 550T206 542Q180 538 153 538Q127 538 101 537H97Q83 532 69 527T45 524L42 527V530Q43 542 49 552T66 571Q55 568 45 565T24 561Q9 560 13 568T27 589T51 611T67 624Q69 625 72 625T80 628Q86 634 91 639T99 646Q104
650 111 653T126 658Q133 662 139 666T154 674Q171 682 186 682Q202 682 220 682L207 667Z" />
<glyph unicode="U" glyph-name="U" horiz-adv-x="598" d="M467 631Q467 632 467 633T468 635Q476 653 492 670T528 692H530Q531 692 531 692T533 691L552 707Q554 658 558 609T567 510T575 412T575 313Q574 303 577 295T583 277Q587 261 586 244T579 210T565 177T548
148Q529 118 503 93T446 48T381 16T311 1Q276 -7 243 -8T182 -2Q148 7 124 29T85 81Q68 114 60 164T48 274Q42 309 38 343T28 413Q22 457 15 501T16 590Q21 601 28 611T46 630Q50 639 59 650T78 671T96 684T108 682H109L111 684Q112 685 113 685T115 687Q116 687
116 687T118 688Q120 689 121 690T124 691L125 692Q130 694 133 691L135 689Q135 687 136 686V669L168 700Q175 679 170 660T164 620Q162 591 162 566T161 512Q161 466 161 421T167 330T184 241T215 156Q222 150 229 146T244 136L259 146V153Q293 136 330 130T406
124Q413 163 415 197T416 264T413 333T410 407Q408 452 412 495T412 584L467 631Z" />
<glyph unicode="V" glyph-name="V" horiz-adv-x="658" d="M162 652Q169 633 175 615T188 579Q199 548 207 527T225 475Q246 412 265 350T310 225Q323 193 340 158Q345 179 349 194T356 214Q380 296 413 375T484 532Q498 562 513 592T555 645Q562 651 570 656T588
660Q594 654 594 641Q614 661 632 668Q642 670 644 668T644 656Q633 624 614 598T575 546Q573 541 572 537T570 530Q552 473 529 419T483 309L525 322Q503 293 480 264T439 203Q430 187 424 170T410 136Q408 130 407 124T404 112Q402 103 399 96T390 80Q389 79
389 78Q387 76 386 73T382 68Q385 60 387 54T393 39Q395 37 395 37L394 36Q395 28 387 16T368 -7T346 -24T329 -25V-26Q329 -25 328 -25Q328 -25 328 -24Q323 -18 319 -12T310 2Q306 0 303 0Q292 -11 281 -17T263 -18V-19Q263 -18 262 -18Q262 -18 262 -17Q254
-9 252 0T249 20L251 22Q239 58 224 94T191 166T157 237T126 306Q108 348 92 389T61 474Q53 497 48 520T34 567Q27 581 21 593T13 623Q13 623 12 625Q13 625 13 626Q15 635 21 646T37 666T58 682T78 686Q90 658 97 632Q103 636 106 637Q115 649 128 658T153 670H156Q161
669 162 664V652ZM159 665Q158 665 158 664L159 665V665ZM584 645L583 644L584 645Z" />
<glyph unicode="W" glyph-name="W" horiz-adv-x="615" d="M589 576Q588 568 588 561T587 547Q583 515 578 484T569 420Q561 363 555 306T540 192Q539 185 538 179T536 165Q538 136 538 105T529 54Q526 47 521 41T511 28L508 1Q506 -4 499 -14T484 -34Q481 -45
476 -55T460 -76Q452 -83 442 -91T421 -99Q416 -99 409 -90T396 -70T385 -50T380 -39Q357 4 338 48T302 139Q300 144 298 149T294 160Q292 118 291 77T283 -6Q282 -12 274 -24T255 -47T234 -63T217 -63Q215 -61 215 -59Q213 -59 213 -61Q205 -57 203 -43Q186 -58
176 -55Q165 -63 157 -61L155 -63Q153 -59 151 -51Q149 -46 148 -42T145 -34Q116 58 91 151T46 339Q42 356 37 380T29 429T26 479T31 520Q26 538 23 556T14 593Q14 594 12 598Q14 599 16 601Q19 609 25 618T39 636T56 649T74 655Q75 656 75 657T78 659Q78 656 79
655L91 622L87 618Q112 510 135 403T181 187Q180 188 180 188Q180 189 179 190Q181 186 181 186Q181 184 181 183T182 179Q190 157 198 136T214 94Q216 105 219 116T225 138Q227 146 229 150Q233 191 246 225T294 274Q302 282 311 287T330 290Q334 288 335 286Q338
288 341 289T347 293Q348 293 348 293T350 294Q353 295 356 295T363 295Q369 283 373 270T382 244Q396 206 412 169T444 95Q446 91 448 88T452 80Q454 105 456 128T461 172Q464 222 466 278T474 390T492 498T526 593Q528 596 537 606T556 626T576 640T587 634Q587
629 587 624T585 613Q588 614 596 614Q599 608 600 602T603 589L589 576Z" />
<glyph unicode="X" glyph-name="X" horiz-adv-x="534" d="M30 635Q24 639 28 649Q20 671 27 691T48 726T77 747T101 746Q110 739 117 725T131 694T144 662T157 635Q178 597 200 560T243 483Q251 465 259 447T275 411Q294 440 312 468T351 524Q365 546 383 574T425
626Q442 649 461 665Q465 672 471 680T485 696T502 708T520 711Q521 709 521 706Q521 704 522 702L517 697Q518 697 520 699Q515 690 511 682T502 665Q502 663 501 661T500 656Q462 590 422 529T340 404L341 403Q340 405 336 390T320 358Q316 353 313 348T306 337Q310
329 313 322T322 306Q348 268 373 231T425 156Q437 137 448 119T470 80Q484 63 497 44T517 5Q517 5 518 4L517 3Q517 -6 509 -18T490 -41T468 -57T452 -58Q439 -38 427 -19T404 20Q402 23 400 25T396 31Q370 66 345 101T296 175Q285 192 275 210T256 246Q254 248
250 254Q250 253 250 253T249 251Q240 234 227 212T202 166T178 118T161 71L176 80Q169 67 164 56T150 34Q148 32 137 20T115 0Q113 -3 111 -5T106 -11Q102 -21 101 -26Q99 -29 89 -41T66 -64T46 -79T38 -68V-67Q25 -74 18 -72T12 -60T25 -36T59 0Q60 1 60 2T62
4Q75 38 92 74Q107 115 129 158Q165 234 213 312Q196 338 181 364T151 420Q149 424 141 441T120 481T94 530T68 578T45 617T30 635Z" />
<glyph unicode="Y" glyph-name="Y" horiz-adv-x="465" d="M385 642Q387 536 397 434T419 228Q420 221 424 194T432 133L444 145Q446 136 449 127T453 108Q452 97 448 88T436 69Q436 55 435 44T431 28Q428 24 420 14T403 -7T383 -22T367 -21Q361 -14 356 -2L353
-5Q345 -10 336 -15T316 -27Q291 -50 259 -75T192 -119T126 -148T67 -150Q47 -143 39 -129T21 -98Q23 -77 42 -59T81 -35H85H86V-36Q93 -38 99 -41T114 -45Q134 -47 161 -41T217 -24T271 -3T317 17Q321 25 324 32T329 42Q324 80 321 117T315 193Q311 211 308 230T302
268Q300 265 297 262T292 257Q273 267 253 289Q224 313 201 345T156 406Q123 448 93 491T30 576L27 574Q23 578 19 580T12 587Q14 602 23 613T44 634Q66 653 74 653Q88 662 101 661Q136 597 180 542T271 430Q279 419 288 409T307 388Q313 414 326 432Q323 474 321
516T319 600Q318 601 318 602L319 603Q320 611 326 621T340 641T359 656T379 663Q381 665 382 666T385 670V661Q389 654 394 651L385 642Z" />
<glyph unicode="Z" glyph-name="Z" horiz-adv-x="645" d="M249 328L252 331Q276 363 300 395T352 457Q376 483 403 503T460 543L481 567Q415 562 349 552T222 531Q213 529 199 527T171 522T142 516T116 508Q114 506 112 506T107 503Q92 496 89 498T90 509L84 504Q80
524 96 540Q88 538 80 537T64 536L61 539Q60 540 60 542Q61 556 70 567T89 587H88Q74 585 59 584T30 582L27 585Q27 586 27 586T26 588Q28 608 44 624T78 649Q91 653 107 654T140 654Q160 657 180 659T222 664Q239 665 256 665Q273 665 290 665Q352 677 411 681T511
682Q515 682 525 681T547 678T574 674T600 669Q602 669 604 669T609 670L607 668Q614 666 619 664T626 660Q627 659 625 659T621 660L600 636Q608 637 616 637Q625 637 633 637L576 571H556Q541 549 522 530T483 492Q456 457 429 423T374 354Q390 356 405 357T438
361Q455 362 464 362Q474 362 482 362T499 361T527 359Q531 359 538 359Q546 359 554 358T567 353T573 343Q572 334 567 326T556 310Q543 294 534 288T515 280T494 280T465 283Q447 285 434 286T409 287T383 288Q370 288 353 288L320 285Q308 269 299 255Q270 213
250 171T209 82Q207 76 205 70T199 59Q217 73 235 85T276 107Q307 121 338 126T400 133T463 135Q495 135 528 138Q554 140 580 146T633 153L581 93Q593 92 604 87T627 78Q629 70 626 62T616 47T603 35T591 24Q584 18 572 13V11H569Q540 0 505 1T440 3Q351 -13 272
-30T111 -74L104 -83Q98 -84 93 -84T82 -86Q70 -103 56 -114T28 -123Q24 -119 26 -114V-111Q15 -114 16 -108T26 -91Q27 -84 27 -78T30 -66Q44 -16 76 40T151 154Q164 173 177 191T204 230Q205 232 206 233T208 236Q190 215 170 195L161 186Q153 178 145 171T128
157Q108 143 103 148T111 174Q125 194 140 213T173 252Q154 246 134 238T94 222T53 210T12 205L37 234Q39 251 52 264T80 288Q96 298 107 298T133 296L249 328Z" />
<glyph unicode="[" glyph-name="bracketleft" horiz-adv-x="330" d="M159 669Q181 670 202 669T246 668Q269 675 288 679T317 679Q319 669 314 659T299 641T280 625T262 615Q245 607 228 605T193 602Q177 597 161 594T131 588Q130 577 129 567T125 547Q124 505
123 465T120 382L123 259Q124 225 123 190T126 120Q126 118 127 117L126 116Q126 115 126 115Q127 115 127 114Q125 107 120 100V74Q118 66 110 55Q107 43 100 35Q103 38 107 40L108 41H109Q113 43 116 44T124 47Q134 51 142 55T162 64Q198 77 236 81T312 72Q314
62 309 54T297 39Q284 23 271 15T242 3T210 -2T175 -7Q144 -12 114 -19T54 -35H53Q51 -35 50 -36V-35Q43 -35 42 -31T45 -20T56 -7T70 8Q72 11 74 13T78 17Q65 10 54 6Q48 4 44 8Q38 16 35 31T29 64T25 97T23 119Q22 128 21 142T18 172T16 201T15 226Q14 243 13
277T13 353T21 436T41 511Q42 531 41 549T40 586T47 621T70 656Q81 668 92 675T121 682L105 663Q120 668 135 672T168 680L159 669Z" />
<glyph unicode="\" glyph-name="backslash" horiz-adv-x="479" d="M181 516Q189 500 195 485T210 453Q221 435 228 422T237 407Q262 364 288 324T343 242Q375 202 405 162T463 79Q465 78 465 77T467 75Q467 68 465 64Q466 62 466 61Q466 60 467 58Q465 52 457
40T439 18T418 1T401 0V1Q395 9 390 17T378 34Q373 39 371 42Q370 42 370 42Q370 43 369 43L368 44Q323 92 281 148Q235 207 197 268T122 394Q107 419 92 443T60 492Q51 504 43 517T29 544Q27 549 27 555T25 569Q23 574 22 578T18 587Q18 594 20 599T27 610Q17
629 13 648Q12 648 12 649L13 650Q14 659 20 669T35 689T54 705T75 710L77 712V710H78Q93 693 108 674T134 634Q148 605 157 575T181 516Z" />
<glyph unicode="]" glyph-name="bracketright" horiz-adv-x="295" d="M131 69Q142 73 150 76T166 82Q162 126 165 174T174 271T187 367T196 456Q198 495 199 528T205 603Q205 604 207 608H195Q176 607 155 604T112 597T69 593T29 596Q24 598 24 599T17 602Q17
602 16 603Q10 609 15 618T29 637T49 655T65 667Q86 674 114 679T173 687T231 689T280 679Q280 677 280 677T281 674Q281 671 282 670Q279 658 271 647V641Q279 644 282 635Q284 624 281 613T276 591Q274 589 273 589Q275 551 276 513T277 437Q273 349 267 262T259
86Q259 86 260 85V82Q259 81 259 79L260 80Q259 80 259 79V78V63Q263 65 266 67T274 71Q270 64 267 59T259 48V47Q258 43 253 35Q252 34 252 33Q252 32 251 31Q250 29 250 29T248 26Q246 24 245 22T241 17Q239 15 239 15Q236 12 235 10Q233 9 233 8T231 6Q228 2
225 0T218 -5Q216 -7 216 -7Q212 -9 212 -9Q208 -11 202 -13H199Q197 -12 196 -12T193 -10V11Q167 5 142 5T100 1Q89 -4 79 -9T57 -19Q50 -19 47 -16Q45 -10 45 -7Q36 -8 31 -5Q26 0 28 4T33 14Q53 48 80 64T145 87L131 69ZM163 76Q163 76 167 78Q163 76 163 76Z"
/>
<glyph unicode="^" glyph-name="asciicircum" horiz-adv-x="298" d="M19 312Q13 316 13 323T14 340T21 358T29 374Q31 381 33 387T38 400L35 399Q37 403 39 407T45 416Q54 436 64 457T86 500Q91 529 97 556T127 612Q135 621 146 633T171 648Q179 654 187 658T204
660Q209 653 207 642L224 655Q223 650 223 646T222 638Q223 637 223 636Q223 635 224 634Q226 620 228 608T232 581L238 557Q246 534 255 512T270 470Q273 458 274 446T276 422Q281 408 284 395T285 369Q284 363 276 351T257 328T236 312T219 312Q214 323 213 334T210
356Q205 370 200 382T189 409Q180 435 175 462T167 516L161 537Q154 524 147 511T131 484Q126 472 121 459T107 427Q102 416 99 407T91 389Q91 388 91 388T92 386H90Q84 372 77 359T56 333Q48 325 39 319T19 312Z" />
<glyph unicode="_" glyph-name="underscore" horiz-adv-x="462" d="M76 59Q105 65 130 72T187 78Q189 78 191 78T195 77Q227 85 259 86T322 89Q344 89 370 89T418 78Q424 75 427 66Q433 64 438 62T448 56H449L448 55H449Q451 45 445 34T429 13T408 -3T387 -11Q365
-11 342 -8Q304 -21 266 -14T189 2Q188 2 182 2T170 0T157 -2T149 -3Q129 -11 109 -18T67 -24L66 -23V-24Q60 -29 52 -31T37 -31L34 -28V-25Q34 -14 41 -3Q31 -5 24 -7Q11 -8 13 0T25 20T44 40T57 52Q62 55 67 58T79 64L76 59Z" />
<glyph unicode="`" glyph-name="grave" horiz-adv-x="299" d="M224 432Q220 434 217 437Q202 427 194 433V434Q179 454 151 478T94 528T42 579T12 626Q13 637 19 646T33 663L36 666Q44 674 55 683T80 691Q81 688 84 687L101 700Q99 671 120 645T173 593T235 545T285
498Q286 497 287 497L286 496Q288 486 282 475T265 455T244 440T224 432Z" />
<glyph unicode="a" glyph-name="a" horiz-adv-x="481" d="M64 263Q78 287 96 309T136 348T182 377T230 393Q258 412 289 425T343 427Q371 411 387 389Q398 386 407 380Q410 377 413 374T419 367Q430 377 439 381T450 375Q454 346 455 318T455 260Q456 256 456
253T457 247Q457 228 459 207T453 170Q453 165 453 160T452 149Q457 111 458 79Q460 69 461 60T464 41Q465 35 469 30L465 26Q465 8 461 -8T445 -40Q442 -43 436 -49T422 -62T407 -70T395 -68Q394 -67 394 -66Q394 -66 393 -65Q392 -65 391 -66H388Q381 -66 379
-64Q374 -49 374 -29Q374 -10 372 4Q370 19 369 34T365 65Q339 48 308 36T242 14Q236 12 231 11T219 7Q204 -1 189 -7T158 -17T127 -18T97 -5Q70 14 48 40T15 98Q11 108 12 120T17 145Q11 169 15 184Q21 206 34 225T64 263ZM173 92Q185 90 208 92T258 102T312 120T358
145Q356 168 355 192T351 240Q350 248 350 256Q350 265 349 273L345 270Q344 275 344 281Q344 287 344 292Q342 297 340 301T335 311L326 303Q323 308 323 314Q323 321 321 326Q303 332 287 335T256 340Q242 340 229 338T201 333Q161 317 122 263Q108 246 95 222Q93
192 101 163Q107 154 114 142T131 120T150 101T173 92Z" />
<glyph unicode="b" glyph-name="b" horiz-adv-x="423" d="M43 474Q41 500 39 530T32 587Q30 587 28 588T26 590Q24 592 24 599Q27 612 34 621T50 640Q58 648 69 657T93 665Q99 672 106 678T120 689T132 693Q137 693 138 686V676Q143 678 145 678Q148 678 150 672Q148
621 140 573T124 475Q124 470 124 466T125 456Q126 427 127 399T130 341Q165 367 203 386T288 406Q307 405 323 393T354 370Q378 349 392 324T409 272T405 218T374 164Q346 132 319 104T254 54Q251 52 248 50T241 46Q221 29 201 16T164 -7Q150 -15 134 -18T103
-26Q90 -29 77 -26T51 -21L42 -2H39Q32 -2 30 1Q16 34 14 91T15 210T26 331T37 424Q39 436 40 448T43 474ZM154 79Q154 76 154 73T155 67Q184 78 213 88T270 112Q272 113 274 114T279 116Q283 121 286 126T293 137Q299 147 303 157Q303 172 302 187T295 217Q281
261 245 273T168 274Q159 272 152 269T136 263Q139 225 142 188T150 112Q152 106 158 100T158 86Q156 82 154 79Z" />
<glyph unicode="c" glyph-name="c" horiz-adv-x="516" d="M238 102Q261 97 284 98T331 102Q382 114 430 142Q433 144 436 146T444 151Q448 155 449 156T451 159T454 162T460 168Q463 171 472 178T491 191L495 195L497 193Q506 194 503 180Q491 147 467 121T409
76Q387 57 362 39T313 7T266 -12T225 -16Q196 -10 171 3T123 33Q73 71 46 106T14 178T27 252T89 334Q119 375 162 401T268 448Q281 452 298 454T333 455Q348 459 367 460T404 458Q409 466 419 477T438 498T456 510T467 503Q469 484 468 465T463 427Q465 422 467
418T470 409Q465 390 451 376Q449 360 446 345T436 315L430 306V304Q435 296 441 292T453 282Q436 266 421 251T388 220Q382 226 375 230T365 243Q362 251 370 282Q369 292 370 305T374 332Q372 338 371 344T365 355Q363 357 362 358T358 361Q346 366 335 371T313
379Q294 383 269 383Q242 369 217 352T171 314Q134 281 120 260T113 216Q121 206 131 195T154 169Q159 163 163 156T174 141Q185 130 203 119Q211 113 220 109T238 102Z" />
<glyph unicode="d" glyph-name="d" horiz-adv-x="509" d="M475 547Q475 542 475 537T473 527Q472 516 472 504Q472 493 472 483Q470 432 469 383T466 284Q467 269 468 255T472 226L474 227Q472 225 472 224Q472 216 473 212Q474 201 474 191T477 169L483 127Q485
115 484 102T484 77Q488 62 488 55Q487 49 480 39T463 18T444 1T426 -4Q423 -6 419 -4Q418 -6 417 -6T415 -9V-2Q414 1 413 4T411 12Q407 11 403 13L402 12V15Q393 45 390 80Q363 51 333 37Q287 14 245 4T151 -12Q130 -14 110 -11T71 2T39 25T16 60Q8 80 17 106T44
157Q49 168 54 177T63 194Q80 228 108 259T170 316T241 362T314 396Q327 401 346 401T384 398Q385 415 386 432T389 466Q391 492 393 516T401 564Q400 599 408 630T447 687Q453 692 460 697T475 702Q483 705 490 704Q496 699 496 685T495 652Q496 642 495 629T490
602T483 574T475 547ZM385 170Q380 206 378 241T378 313H373L367 309Q366 309 366 308Q364 309 361 312Q356 311 351 311T341 310Q317 305 289 294T235 268T186 233T149 193T133 149T145 103Q155 87 173 87T206 89Q219 92 241 99T288 118T339 143T385 170ZM133
226Q126 218 118 208T101 187Q97 177 95 167Q120 202 156 239T236 306Q215 300 192 283T133 226Z" />
<glyph unicode="e" glyph-name="e" horiz-adv-x="504" d="M306 458Q312 458 329 456T365 449T401 435T421 413Q431 402 438 387Q459 343 447 309Q452 308 456 307T465 304Q467 295 463 286T451 269T434 255T419 244Q402 234 378 233T331 231Q289 226 250 217T170
198Q151 193 133 187T95 176Q113 129 152 98Q187 78 231 73T316 71L349 80Q351 81 348 80T339 78T331 76T330 76Q357 83 385 89T441 105Q449 111 457 117T477 128Q480 129 483 129T490 129Q492 121 492 117Q487 99 473 86T445 62Q426 52 406 44Q405 43 404 43Q381
29 354 22T301 10Q277 6 249 4Q196 -5 156 1T85 35Q65 47 51 64T29 106Q26 113 26 119Q26 126 27 133Q20 152 14 177Q9 195 14 214T23 253Q26 274 38 295T65 334Q90 367 116 389T170 425T232 446T306 458ZM92 263Q92 256 93 250T96 237Q113 245 131 251T168 262Q206
274 244 282T309 298Q326 303 343 307T377 314Q376 317 375 319T373 325Q361 351 339 364T288 380Q258 383 229 375T173 350T126 311T92 263ZM105 334Q118 346 131 356T158 377Q126 364 110 341Q108 339 108 338T105 334Z" />
<glyph unicode="f" glyph-name="f" horiz-adv-x="519" d="M148 488Q153 501 165 516Q163 518 163 518Q161 529 164 539T173 558T187 575T202 590L203 591Q223 619 251 638T311 671Q338 682 372 682T434 668Q440 664 451 651T473 620T489 586T489 557Q480 541 464
524T428 505Q419 510 413 520T398 538Q393 541 389 544T380 550Q369 548 357 554T333 565Q322 558 311 552T287 540Q283 535 281 529T276 517Q280 507 280 491T277 456T272 421T267 392Q285 393 302 393T336 392Q339 392 350 392Q362 392 374 391T396 386T406 374L340
317V318Q331 310 322 306T304 301Q293 302 283 303T262 306Q261 268 262 230T266 154Q268 132 274 112T280 69Q278 63 275 57T267 43Q269 29 270 15T274 -14Q272 -20 264 -32T246 -54T225 -71T208 -71Q205 -66 204 -61T200 -51Q201 -49 202 -49T204 -46Q203 -40
202 -34T199 -21Q188 -36 173 -47T150 -51Q150 -50 150 -50T149 -48Q148 -48 147 -47Q147 -46 147 -46T146 -44Q146 -42 148 -42Q143 -19 144 5T143 53Q141 82 140 110T141 168L144 170Q143 203 143 236T145 303Q137 301 130 300T114 296Q100 292 87 291T61 283L59
281Q58 282 57 282Q56 282 55 283Q52 285 52 288Q43 286 35 286T20 287L17 290Q16 291 16 293Q18 311 31 324T59 349Q77 361 99 369T147 382Q147 388 147 394T148 407Q149 427 146 447T148 488Z" />
<glyph unicode="g" glyph-name="g" horiz-adv-x="560" d="M532 272Q531 271 531 270Q533 265 533 261T535 252Q536 234 529 216T510 182Q508 173 507 164T505 145Q502 118 498 87T492 26T494 -35T510 -91L511 -92H510Q512 -103 504 -115T483 -138Q473 -150 461
-160T434 -172Q374 -173 316 -176T198 -181Q175 -181 153 -181T109 -183Q98 -185 88 -186T67 -191H65Q63 -194 60 -197T54 -203Q52 -202 51 -201T48 -199Q45 -196 45 -192Q29 -201 12 -213Q18 -199 24 -186T37 -159Q81 -129 116 -116T188 -98T264 -91T357 -81Q369
-79 381 -77T406 -72Q406 -58 407 -45T409 -20Q409 6 409 35Q409 64 411 93Q388 77 363 63T312 40T259 27T205 28Q194 30 184 38T166 54Q164 54 162 54T158 55Q148 55 134 58T105 66T78 79T59 99L35 81Q38 97 41 113T48 145Q48 149 48 153Q48 157 50 162Q64 212
102 250T190 315Q216 333 240 347T284 370Q306 379 334 387T392 398T450 396T499 373Q511 363 517 349T532 322Q536 312 537 307H541Q548 305 548 302T545 293Q543 288 540 284T535 274L532 272ZM339 287Q310 289 275 286T208 275Q200 270 190 264T171 250T156
233T148 215Q145 196 149 185T163 165T185 151T209 135Q212 132 215 129T223 122Q250 123 279 129T335 143T383 160T417 177Q420 178 426 182Q431 196 437 209T448 237Q431 253 411 264T385 279Q373 283 353 285L344 277Q340 283 339 287Z" />
<glyph unicode="h" glyph-name="h" horiz-adv-x="458" d="M54 601Q53 606 52 609T50 616L46 614Q47 616 47 619T50 624Q53 632 60 642T75 662T94 676T114 680Q116 676 116 673T119 664Q130 676 141 683T158 686L160 688V679H159Q157 656 154 636T149 593Q147 570
148 547T150 501Q149 475 148 450T146 399H147Q153 384 156 368T162 333Q189 351 219 363Q244 375 270 384T323 396Q341 399 352 398H353Q354 398 354 398T357 397Q358 392 357 389T354 380Q362 382 372 383T393 386Q408 396 412 387H417Q427 385 423 377T416 363Q415
362 415 361T413 359Q412 358 410 358Q407 313 411 269T418 180V156Q419 153 419 150Q419 148 420 145Q423 124 428 98T430 49V41Q429 35 421 23T402 0T381 -16T364 -16Q357 -3 355 13Q354 13 353 12Q353 26 347 41Q346 44 346 46T344 52Q342 52 340 52T337 55V71Q336
74 336 76T334 82Q329 100 323 129T311 190T304 252T302 303V304Q302 305 302 306T303 308Q291 311 280 311L244 302Q224 292 204 280T163 255Q162 230 161 206T160 160Q161 154 161 149T164 137Q163 139 163 141Q163 143 164 141Q170 118 174 89T168 36Q159 20
143 3T107 -16Q100 -13 97 1Q86 -15 70 -27T45 -32Q43 -19 45 -6T49 21Q49 136 43 253Q40 292 40 335Q40 379 41 424T46 515T54 601Z" />
<glyph unicode="i" glyph-name="i" horiz-adv-x="203" d="M42 192Q37 232 40 270L37 267Q37 284 37 298T41 325T51 349T72 373Q77 377 83 382T98 390L121 412Q123 406 124 400T127 387Q137 395 145 397T155 391Q154 383 154 376T153 360Q152 320 152 280T152 200Q155
161 160 122T175 42Q176 42 178 44Q178 42 178 40T177 35Q175 29 168 18T150 -3T130 -20T113 -24Q105 -31 97 -34T84 -32Q83 -29 83 -27T81 -21Q66 -31 59 -24Q58 -19 58 -13Q58 -8 57 -2Q54 5 52 18T48 45T46 73T45 92Q44 106 44 119Q44 132 44 146Q43 157 43
169T42 192ZM69 548Q70 550 70 552Q70 555 71 557Q79 575 95 592T131 614H133Q138 613 139 608V595Q147 601 152 602T160 595Q162 579 162 565Q162 551 167 550L150 530Q148 516 144 503T132 478Q130 475 127 471T119 461Q118 460 118 459V458L117 457Q117 456
116 456Q116 456 116 455Q113 451 105 441T88 420T68 405T52 406Q51 440 51 476Q51 512 64 544L69 548Z" />
<glyph unicode="j" glyph-name="j" horiz-adv-x="369" d="M297 473Q298 474 298 474Q299 474 300 475Q302 477 307 481T317 488T328 491Q333 491 334 485Q336 396 342 309T346 132Q345 118 345 102Q345 86 344 69Q345 68 345 67Q345 67 346 66Q354 41 356 21T354
-17T337 -52T305 -88Q295 -96 283 -107T256 -130Q240 -148 222 -163T183 -187T141 -200T93 -196Q71 -190 50 -176T17 -141Q10 -130 14 -118T28 -93Q30 -83 36 -76T49 -61Q64 -45 73 -38T87 -31T97 -35T108 -49Q113 -51 118 -52T127 -56Q150 -68 170 -84T213 -103Q213
-102 214 -102Q227 -91 233 -69T244 -23Q236 43 238 110T247 245Q243 291 238 337T224 428Q224 429 224 429T223 431L224 432Q225 441 231 452T247 472T268 488T289 492Q292 483 297 473ZM279 676Q279 674 279 673T278 669Q286 677 296 685T319 691Q326 688 324
678T321 663Q319 655 319 650H322Q325 648 326 646T330 641Q325 637 322 634T314 626Q313 624 307 616L308 617Q306 615 306 614Q306 614 305 613Q298 605 290 597T274 582Q269 577 263 572T252 565Q241 554 230 547T212 546Q207 561 209 582T213 619L279 676Z"
/>
<glyph unicode="k" glyph-name="k" horiz-adv-x="422" d="M176 695Q176 694 175 694L176 695Q173 691 173 691Q173 691 174 693Q166 676 162 651T154 600T150 550T147 508Q140 436 135 364Q135 364 137 366Q142 369 146 372T156 380V379Q197 409 242 439T332 492Q348
502 363 511T396 529Q402 531 405 531T410 525Q405 502 387 485T349 457Q327 430 304 410T251 371L243 359Q251 367 260 373T281 377Q288 363 292 344T301 303T309 260T319 222Q324 211 327 201T335 180Q355 135 375 92T401 -1V-4Q400 -10 392 -21T375 -42T355
-59T337 -62L335 -65Q335 -63 335 -62T334 -60Q313 -18 300 26T271 116Q266 127 262 137T254 159Q253 160 253 161Q251 165 251 166Q242 185 229 204T204 243T182 283T169 326V327Q148 314 132 301Q130 239 134 179T153 58L155 60Q155 58 155 56T154 51Q152 45
145 34T127 11L126 10Q121 2 113 -7T97 -24T81 -34T68 -32V-33Q68 -32 67 -31V-30Q66 -31 66 -31Q66 -32 65 -33Q64 -29 62 -23Q49 13 41 52Q36 51 31 54Q31 53 30 53V55Q27 99 26 142T25 230Q14 225 13 232T23 256Q24 257 24 257Q24 258 25 259Q26 352 34 447Q36
475 39 502T48 558Q49 564 50 571T54 585L48 581Q50 605 58 625Q58 625 62 633Q64 644 68 654T81 676Q83 678 91 686T108 702T126 713T136 707Q136 702 136 698Q136 694 135 689Q140 694 149 703T168 718T182 724T185 709L179 697L176 695Z" />
<glyph unicode="l" glyph-name="l" horiz-adv-x="208" d="M43 221Q40 275 41 327T46 434Q46 442 46 451Q46 460 47 468Q49 503 49 543T55 618Q57 623 67 635T88 659Q90 664 92 668T97 678Q107 692 120 706T152 725H157Q162 723 163 719Q167 695 163 669T154 620Q147
575 139 531T124 442Q123 352 131 264T156 89L161 93Q161 89 161 86T160 79Q158 73 151 63T134 41Q135 36 135 30Q135 25 135 20Q135 16 136 14Q134 13 134 12T131 10Q127 3 119 -7T102 -27T85 -40T70 -40Q69 -40 69 -41V-39Q64 -9 60 21T53 81Q52 86 52 90T50
100Q45 130 44 160T43 221Z" />
<glyph unicode="m" glyph-name="m" horiz-adv-x="619" d="M101 426Q100 424 100 421Q100 419 99 417Q108 427 119 433T141 438Q147 432 147 420T143 394T136 365T130 341Q131 343 135 347Q147 361 158 373T184 396Q228 428 253 431T293 411Q310 415 322 416T339
412Q357 389 365 358Q388 370 416 383T474 405T533 415T589 405V403Q594 401 591 388Q581 357 580 325T579 260T582 194T578 129Q576 117 576 110T574 97T570 86T561 72Q558 67 549 59T531 43V44V43Q531 42 531 42T530 40Q525 36 523 36Q528 40 530 43L523 36Q518
31 512 25T500 15T494 10T497 11Q492 6 484 2T470 3Q470 13 470 39T473 98T479 169T486 241T497 301T509 340H505Q483 338 462 332T421 321Q414 319 400 315T373 305Q375 277 374 248T370 189T365 132T361 82L366 86Q366 60 347 40T305 10Q297 10 295 12Q284 -2
270 -12T248 -16Q243 24 243 64T245 144T247 224T243 305Q239 331 232 346Q210 341 189 333T154 318Q146 307 138 297T122 276Q117 216 118 152T130 33Q131 34 132 34T134 36Q134 32 134 29T133 22Q131 16 123 4T105 -19T84 -36T67 -36Q64 -26 63 -15T59 7Q49 3
43 8Q41 34 41 61Q41 88 39 115Q35 181 30 245T36 376L101 426ZM365 357Q364 350 365 350T368 351T370 355Q370 358 365 357ZM377 361Q378 361 378 361T378 362L377 361Z" />
<glyph unicode="n" glyph-name="n" horiz-adv-x="484" d="M284 342Q254 342 222 326T163 293Q163 237 168 183T192 75L194 77Q194 72 194 70T196 64Q198 62 198 59Q199 58 199 57Q199 57 200 56Q202 49 195 37T177 14T155 -3T137 -7L136 -8Q136 -7 135 -7Q135
-7 135 -6Q125 15 117 41Q112 34 105 26T91 13T78 5T66 4L64 2Q63 5 63 12Q56 57 51 107T45 210T47 313T57 409V417Q57 417 59 418Q62 424 72 436T92 458T112 472T123 466Q123 449 123 433T121 399Q131 410 143 418T168 425Q172 407 170 387T165 346Q185 364 207
380T255 409T306 429T358 435Q366 435 375 435T393 429Q413 414 420 390T431 342Q436 309 439 276T443 209Q443 194 441 177T441 145Q443 126 447 106T449 67Q439 59 430 53T412 38Q406 30 399 22T384 9T371 3T360 5Q359 7 359 12L360 13Q360 18 360 22T362 31Q354
23 346 20T332 23Q331 24 331 27L333 29Q329 28 329 32T332 41T338 53T342 63Q345 77 349 92T357 121Q364 159 358 200T337 277Q326 303 313 318T284 342Z" />
<glyph unicode="o" glyph-name="o" horiz-adv-x="502" d="M30 70Q15 100 14 133T21 200T50 266T94 324Q96 326 98 328T102 333Q114 346 130 360T164 387T201 406T240 412Q252 410 262 408T284 404Q322 409 354 390Q368 381 382 373T409 353Q430 331 445 306T467
254Q469 250 471 247T475 240Q484 222 488 199T485 155Q473 119 466 100T449 68T422 40T376 -1Q365 -12 351 -19T322 -30Q303 -34 283 -33T244 -31Q221 -30 203 -30T169 -27T137 -19T100 -1Q99 -1 98 0Q49 25 30 70ZM384 202Q366 226 339 249T281 287T216 308T153
303Q136 289 124 268Q96 222 97 182T121 114T187 74T285 71Q295 73 309 76T338 84T366 97T389 114Q406 133 403 157T384 202ZM408 68Q397 57 385 48T361 31Q372 33 378 37Q385 43 393 49T406 63Q407 64 407 65Q407 66 408 68Z" />
<glyph unicode="p" glyph-name="p" horiz-adv-x="466" d="M15 339Q16 344 21 353T34 372T50 391T68 404Q71 408 74 411T82 419Q85 421 90 425T100 433T112 437T122 435Q123 434 123 433Q123 433 124 432Q141 440 158 445T193 456Q231 467 263 468T325 442Q327
441 329 441Q331 441 333 440Q371 427 397 397T438 330T453 251T443 173Q438 158 428 144T405 117T379 92T354 72Q316 42 269 23T177 -14Q177 -34 177 -55T176 -98T181 -141T194 -180Q184 -189 175 -198T156 -216V-226V-227H155Q153 -234 145 -245T127 -267T107
-283T90 -283Q89 -281 89 -279Q89 -277 88 -275Q84 -277 80 -273Q75 -268 75 -259Q75 -250 75 -242Q70 -231 68 -223T61 -198Q50 -160 46 -121T41 -42Q40 -25 40 -9T39 24Q37 39 36 54T33 86Q31 105 31 124T29 163Q25 192 22 221T16 279Q15 291 13 309T15 339ZM276
360Q269 365 263 368T249 376Q237 377 224 376T196 372Q176 368 173 367T165 363Q159 291 162 221T170 80Q179 84 184 85T193 88T203 89T216 93Q236 110 257 126T295 159T322 195T331 236Q329 258 317 291T284 354Q282 356 280 357T276 360ZM252 76Q249 71 246
68T240 59Q255 65 277 73T321 92T360 113T381 137Q386 148 387 160T389 183Q377 165 361 150T324 120Q309 109 295 101T265 83Q262 81 259 80T252 76Z" />
<glyph unicode="q" glyph-name="q" horiz-adv-x="586" d="M314 411Q356 419 398 415T475 389Q492 378 507 363T534 331Q537 325 540 320T546 309Q553 312 556 310T556 296Q555 295 555 294Q555 293 554 292Q560 278 563 267Q567 268 569 268T573 262Q574 254 571
234Q576 203 570 176T548 124Q543 91 538 49T530 -36T528 -120T536 -192Q526 -201 517 -210T497 -229Q495 -235 495 -240V-248L489 -251Q484 -260 476 -270T460 -288T443 -299T429 -297Q429 -288 429 -279Q429 -271 428 -262L427 -261Q427 -256 427 -250Q427 -244
428 -239Q426 -213 425 -186T426 -133Q426 -117 427 -102T431 -72Q431 -43 432 -16T436 38Q426 33 411 28Q376 16 339 12T267 3Q235 -2 202 -2Q169 -2 138 6Q103 14 84 30T57 70Q46 79 42 86Q28 105 25 128Q18 137 15 146Q8 165 17 189T42 238T77 283T109 315Q115
320 121 325T135 336Q152 357 170 376T207 410T243 433T275 440Q289 438 303 435T331 430L314 411ZM184 307Q162 299 151 288T128 263Q111 212 114 166Q122 160 129 155T141 148Q183 116 220 106T293 101T369 125T453 165Q451 177 450 189T447 214Q431 247 400
270T332 305T255 317T184 307Z" />
<glyph unicode="r" glyph-name="r" horiz-adv-x="460" d="M144 375Q151 384 157 392T172 407Q175 409 172 403T169 392Q166 377 166 363Q165 354 165 346T164 329Q184 351 208 369T258 399T311 411T365 400Q371 396 375 392Q388 389 399 383T419 364Q430 347 433
328T440 288Q434 288 429 288T417 288L394 236L400 240Q394 235 387 232T374 233Q372 238 372 244T370 255Q367 254 361 254Q355 256 349 261Q346 261 344 264Q344 264 342 268Q337 273 332 277T319 286Q303 292 282 293T240 290T199 276T165 254Q165 225 171 187Q178
162 186 138T202 91L192 81Q197 59 202 41T213 8Q211 6 211 5T208 3Q210 -1 212 -2V-3L218 -9Q220 -7 222 -6Q221 -8 221 -10Q221 -13 220 -15Q219 -21 211 -33T192 -55T171 -72T154 -72Q144 -62 137 -48T124 -17Q113 -31 100 -42T77 -51Q76 -53 75 -53T73 -56Q73
-54 73 -52T72 -48Q62 -31 60 -9T56 32Q53 55 51 77T48 123Q39 168 32 213T23 305L49 327V342Q49 342 51 343Q55 352 64 363T83 384T102 397T114 396L115 397V378Q121 387 129 394T147 409L144 375Z" />
<glyph unicode="s" glyph-name="s" horiz-adv-x="513" d="M339 135Q338 136 332 144T325 154Q303 159 280 163T238 172T207 180T192 184Q187 188 188 194T195 207Q181 208 167 209T139 212L138 210Q134 211 131 211T124 213Q113 214 103 215T81 218Q75 223 79
232T92 250Q85 251 79 251T67 251Q54 248 38 248Q36 248 34 249T32 250Q27 255 29 259T33 269Q41 285 52 295T77 314Q74 319 75 323L60 320Q49 318 50 324T55 338Q76 374 113 395T195 428T285 442T369 442Q383 441 395 436Q406 436 415 435T432 429Q443 428 453
427T472 420Q474 412 470 405T460 390T448 378T436 367Q420 356 403 352T367 347L355 336Q352 340 348 348Q331 349 315 350T282 353Q260 349 240 344Q240 338 240 333T242 321Q265 316 287 311T328 301Q352 293 374 289T416 279T449 268T473 249Q491 232 495 206T492
156Q500 151 491 139T468 115Q455 98 439 86T402 65Q366 40 320 23Q285 7 249 -4Q203 -22 160 -32T91 -31Q87 -27 89 -22Q92 -10 96 -4Q79 -9 62 -14T33 -22Q28 -25 28 -23Q25 -24 22 -24Q20 -24 18 -24Q14 -20 15 -15T20 -3T28 8T36 16L57 34Q48 40 55 55T76 85T109
108T143 108Q139 104 136 101T129 93Q137 90 147 90Q158 90 165 90Q183 89 201 89T238 91Q248 96 258 96Q268 96 278 97T298 104T320 122L339 135Z" />
<glyph unicode="t" glyph-name="t" horiz-adv-x="488" d="M304 454Q304 448 304 443T305 431Q307 419 308 407T311 382Q328 384 344 385T378 385Q386 386 392 386Q399 386 407 387L404 384Q413 383 422 383T440 380H446L444 378H445H446Q456 375 451 366T435 345T412
325T395 313Q394 313 393 313T391 312H386Q376 311 367 311T349 310Q341 309 334 309T320 307Q323 276 325 246T326 185Q325 161 325 130T324 70Q326 54 327 39T328 8Q327 2 319 -9T301 -31T281 -48T263 -50Q263 -50 262 -51V-49Q261 -44 261 -41T259 -33Q253 -40
247 -46T234 -57T222 -62T212 -60Q200 -28 200 6T198 75Q195 129 194 181T193 288Q185 286 179 285T164 283H163L145 262Q125 262 104 260T64 263Q59 267 62 277Q61 277 61 277Q61 278 62 278Q59 280 59 282Q57 282 56 281T53 280Q46 279 45 280T44 289Q52 321
73 333T120 351Q138 357 156 362T194 371Q194 384 194 396Q194 409 196 421Q197 429 206 442T227 467Q232 486 250 501T286 522Q293 521 296 515T301 499T303 479Q303 469 303 460Q304 458 304 454Z" />
<glyph unicode="u" glyph-name="u" horiz-adv-x="463" d="M331 278Q329 297 324 319T323 361V363L324 364Q324 366 325 367Q328 375 335 385T350 404T369 418T389 422Q395 408 399 393T406 362Q411 365 415 365Q420 365 422 360L423 361Q423 360 422 360Q422 360
422 359L423 358Q425 332 424 307T423 255Q431 197 435 140T432 25V24V23Q431 23 431 22Q428 15 420 4T402 -18T382 -33T366 -32Q364 -21 364 -11T362 9Q360 9 359 9T357 8L356 7Q346 9 342 10Q331 2 324 0T318 11V12Q309 11 282 7T221 -2T157 -7T112 -3Q107 -4
101 -4T90 -5Q86 -1 88 5Q89 7 89 9T91 13Q76 17 67 30T52 58T44 90T40 119Q34 174 40 230Q35 256 33 282T33 336V337Q33 339 33 340T34 343Q37 351 43 361T58 380T76 394T96 399Q113 419 138 429Q143 431 146 431T152 425Q153 416 151 406T145 384Q157 394 166
396T171 381Q162 356 160 326T159 263T166 199T176 140Q176 140 178 134T183 118T191 99T199 79Q231 83 265 83T329 84Q334 106 337 127T342 171Q340 187 339 202T336 232Q334 241 331 250T323 270L331 278Z" />
<glyph unicode="v" glyph-name="v" horiz-adv-x="481" d="M13 362Q16 369 22 378T36 396T53 411T72 418Q74 420 75 420Q84 429 94 435T115 439Q114 441 114 442Q114 444 115 443Q115 440 116 439Q118 430 120 421T126 401Q143 370 154 336T173 266Q174 265 174
264Q174 264 175 263Q196 229 218 193T257 123Q262 115 265 107T274 91Q285 133 298 174T328 255V257Q330 262 336 270T351 287Q363 329 379 367T419 430Q427 438 438 447T463 455Q470 449 468 434T460 411Q458 404 457 397T454 383Q449 363 443 345T429 308Q416
275 402 243T374 177Q361 145 350 111T320 48Q318 46 310 37T291 18T273 5T262 8Q259 5 254 3Q243 -11 230 -20T209 -21Q197 -9 185 8Q185 9 184 9Q184 9 184 10Q161 39 147 73T124 142Q120 151 117 162Q106 183 95 204T75 249Q73 252 72 254T69 259Q62 270 52
282T32 307T18 335T13 362Z" />
<glyph unicode="w" glyph-name="w" horiz-adv-x="605" d="M34 347Q33 352 33 357Q33 362 33 367V372L34 373Q36 382 43 392T59 411T78 425T98 429V428L99 429V421Q101 410 103 400T107 379Q113 386 120 393T134 405T146 411T154 409Q155 409 157 411Q156 408 156
403Q159 377 161 351T167 298Q169 288 170 278T174 257Q182 226 191 196T205 136Q216 160 227 183T251 230Q264 257 280 282T319 328Q319 329 321 331Q323 333 331 339T347 351T361 356Q367 356 365 346L385 362Q383 343 383 324Q383 306 384 286H389V284L390 285V283Q401
260 407 234T420 185Q424 169 427 154T436 122Q441 150 448 177T464 232Q470 258 479 282T504 331Q515 360 530 383T564 417Q570 420 574 422T587 423Q590 420 592 419Q592 417 592 417T593 414Q590 382 579 351T558 290Q550 270 544 249T531 208Q527 185 522 160T509
112Q506 86 500 62T481 14Q479 12 475 6T462 -9Q459 -16 452 -26T435 -46T416 -60T400 -63Q400 -64 399 -64Q399 -64 399 -65Q399 -64 399 -64T398 -62Q362 1 342 78T318 233Q312 214 306 196T294 159L300 163Q294 138 288 110T273 56T248 8T208 -29Q200 -32 194
-33T190 -24Q190 -18 191 -15Q180 -27 168 -36T147 -37Q145 -26 147 -15T154 7Q149 7 147 8L144 5V10Q143 12 143 16Q142 16 142 17Q128 4 110 -4Q108 -4 107 -5Q100 -5 97 -2Q86 20 78 49T63 110T51 176T42 244Q36 267 29 288T12 326L34 347Z" />
<glyph unicode="x" glyph-name="x" horiz-adv-x="473" d="M115 426Q117 418 121 409T130 388Q139 393 148 391Q162 388 177 375T207 342T236 298T264 249L294 282Q313 304 332 325T373 365Q389 382 406 395T443 413Q450 411 450 408T447 399Q446 398 446 395Q453
398 457 397T459 384Q445 351 422 322T371 267Q354 247 336 228T299 189Q313 172 325 155T352 120Q365 102 379 80T411 37L413 39Q418 33 422 27T432 14Q434 6 426 -6T407 -30T384 -48T367 -48Q354 -35 342 -20T319 11Q312 8 304 8Q295 13 285 25T264 52T244 81T229
103Q227 105 226 107T222 111Q205 93 190 75T161 37Q159 35 154 27T144 10L150 14Q133 -15 116 -36T79 -61H76Q76 -61 74 -60Q71 -60 69 -58V-52Q69 -51 70 -50V-49Q67 -51 65 -51T60 -54H57Q43 -70 22 -78Q15 -78 13 -76Q11 -65 16 -52T28 -25T44 -1T59 18Q77
43 96 66T136 112Q147 125 158 137T180 163Q160 188 139 216T99 272T67 323T50 364L115 426Z" />
<glyph unicode="y" glyph-name="y" horiz-adv-x="509" d="M89 389V387Q89 385 89 384T90 381Q103 387 112 386Q138 365 157 340T191 288T219 233T246 175Q249 172 251 168Q260 158 268 149T285 132Q293 148 301 163T319 192Q328 212 338 230T359 267Q370 293 383
318Q389 330 401 344T425 369L443 393Q445 395 454 405T474 422T492 431T495 416Q479 380 460 346T426 276Q403 223 384 170T344 62Q346 56 348 48H349L348 47Q348 40 347 36Q339 22 326 7Q324 2 322 -4Q317 -15 314 -24T306 -41Q301 -54 297 -64T289 -83T281 -105T269
-134Q261 -155 257 -176T238 -218Q236 -220 227 -230T206 -250T187 -261T180 -251Q180 -249 180 -248T181 -246Q171 -251 161 -251Q158 -249 158 -242Q162 -219 170 -197T189 -154Q189 -140 194 -120T205 -80T217 -43T228 -16L231 -7Q223 1 211 19T184 60T154 108T126
156Q118 167 111 177T96 199Q66 231 44 264T13 331Q13 332 13 332T12 334L13 335Q15 347 26 362T51 387Q59 397 70 404T92 410Q94 405 94 401Q94 398 94 393L89 389Z" />
<glyph unicode="z" glyph-name="z" horiz-adv-x="549" d="M63 373Q111 405 175 413T307 418Q321 420 335 421T365 425Q379 428 393 430T423 436Q446 440 470 445T517 449Q522 447 522 445T522 439Q522 437 521 436Q515 415 497 399Q499 394 494 385T479 367Q483
366 480 354Q475 341 465 330T444 310Q438 306 433 303Q426 298 418 293Q414 290 410 287Q405 284 400 280T390 273Q375 262 360 252T331 230Q308 213 286 198T241 166Q230 157 220 149T200 131Q232 139 265 143T331 149Q357 157 385 163T440 174T492 179T536 175Q536
173 536 173T537 170V166Q532 146 516 131T481 107Q441 91 389 88T285 83Q257 75 230 66T176 46Q167 43 152 35T120 20T89 9T67 9Q64 11 64 13Q51 2 39 -5Q33 -7 28 -8T21 -6Q16 -8 14 -7T12 3Q13 16 23 29Q20 27 15 22L13 24Q15 44 32 60T66 85Q76 90 85 94T105
103L114 112Q127 123 141 134T169 156Q214 204 263 253T364 340Q353 341 343 342T322 344Q276 336 231 329T140 320Q135 325 137 331Q108 323 80 317T23 314Q17 320 21 329T33 346T50 362T63 373Z" />
<glyph unicode="|" glyph-name="bar" horiz-adv-x="152" d="M93 722Q103 724 108 723Q114 712 112 681Q112 680 112 680T113 677H120Q122 674 122 660T120 627T117 586T113 545T110 513T108 497Q101 378 111 258Q113 231 117 204T125 156T132 121T135 110Q138
98 139 86T135 62Q134 60 134 60T132 57Q135 44 133 30V29H132Q130 19 126 12Q123 8 116 0T100 -17T83 -29T68 -29Q53 -39 46 -32Q33 -12 28 12T21 63T20 114T20 162Q20 166 20 169T19 177Q18 185 18 194T16 211Q12 254 12 296T15 382Q15 391 15 400T16 419Q16
459 16 499T22 581Q21 585 21 588Q21 591 20 595Q20 595 24 597Q26 612 30 627V660V663Q31 665 31 665Q31 666 32 668Q34 673 38 679Q40 683 46 689Q52 697 57 702L59 704Q76 719 85 722Q89 723 92 722H93V722Z" />
<glyph unicode="~" glyph-name="asciitilde" horiz-adv-x="564" d="M306 229Q266 247 231 279T171 348Q166 340 160 334T149 319L134 301L139 303Q139 291 128 275T101 242T69 212T42 195Q36 193 32 197Q32 198 31 198Q31 198 31 199Q23 194 17 194T13 203Q15
214 23 229T45 261Q56 289 68 318T96 375T131 427T176 471Q185 478 194 484T214 494T236 497T258 487Q263 482 268 477T278 466Q290 454 300 440T319 410Q331 393 342 376T365 343V342Q377 355 392 370T423 400T456 430T488 457L494 463H497Q511 474 522 480T541
486Q537 480 539 479T544 478T550 475T551 463Q547 451 538 439T518 414T495 391T471 368Q467 363 463 358T455 348Q444 328 433 309T410 272Q399 258 386 245T354 229Q353 229 349 231Q335 222 326 222Q325 222 324 223L321 220L306 229V229Z" />
</font>
</defs>
</svg>
